<svg width="20" height="20" viewBox="0 0 20 20" fill="none" xmlns="http://www.w3.org/2000/svg">
<g clip-path="url(#clip0_4001_566)">
<path d="M5.80677 12.1303C4.63899 11.4529 3.10169 11.4535 1.93581 12.1296C1.34641 12.4686 0.855766 12.959 0.517742 13.5477C0.179032 14.1316 0 14.8009 0 15.4838C0 16.1668 0.179073 16.8361 0.517097 17.4187C0.856168 18.0085 1.34546 18.4979 1.93516 18.8371C2.51903 19.1758 3.18831 19.3548 3.87097 19.3548C4.55363 19.3548 5.22286 19.1757 5.80613 18.8377C6.39552 18.4988 6.88617 18.0084 7.22419 17.4196C7.5629 16.8361 7.74194 16.1668 7.74194 15.4838C7.74194 14.8009 7.56286 14.1316 7.22484 13.549C6.88569 12.9592 6.39642 12.4697 5.80677 12.1303ZM5.7529 18.0993L5.44073 17.5581L4.88185 17.8807L5.19355 18.4209C4.87742 18.5613 4.53927 18.6481 4.19355 18.6816V18.0645H3.54839V18.6813C3.20298 18.6481 2.8648 18.5613 2.54839 18.4206L2.86008 17.8804L2.30121 17.5578L1.98903 18.099C1.70624 17.896 1.45847 17.6483 1.25552 17.3655L1.79673 17.0533L1.47415 16.4944L0.932943 16.8068C0.790685 16.4913 0.700927 16.1542 0.666129 15.8064H1.29032V15.1613H0.666129C0.700288 14.8155 0.7904 14.4775 0.932943 14.1606L1.47415 14.473L1.79673 13.9141L1.25552 13.6019C1.45856 13.3192 1.70631 13.0714 1.98903 12.8684L2.30121 13.4096L2.86008 13.087L2.54774 12.5458C2.86466 12.4033 3.2026 12.3132 3.54839 12.279V12.9032H4.19355V12.279C4.53935 12.3132 4.8773 12.4033 5.19419 12.5458L4.88185 13.087L5.44073 13.4096L5.7529 12.8684C6.0357 13.0713 6.28347 13.3191 6.48641 13.6019L5.9452 13.9141L6.26778 14.473L6.80899 14.1606C6.95125 14.4761 7.04101 14.8135 7.07581 15.1613H6.45161V15.8064H7.07581C7.04165 16.1522 6.95154 16.4902 6.80899 16.8071L6.26778 16.4947L5.9452 17.0536L6.48641 17.3658C6.28347 17.6486 6.0357 17.8963 5.7529 18.0993Z" fill="#111111"/>
<path d="M3.87096 13.871C2.98165 13.871 2.25806 14.5946 2.25806 15.4839C2.25806 16.3732 2.98165 17.0968 3.87096 17.0968C4.76027 17.0968 5.48386 16.3732 5.48386 15.4839C5.48386 14.5946 4.76027 13.871 3.87096 13.871ZM3.87096 16.4516C3.33749 16.4516 2.90322 16.0173 2.90322 15.4839C2.90322 14.9504 3.33749 14.5161 3.87096 14.5161C4.40443 14.5161 4.8387 14.9504 4.8387 15.4839C4.8387 16.0173 4.40443 16.4516 3.87096 16.4516Z" fill="#111111"/>
<path d="M3.54839 15.1613H4.19355V15.8065H3.54839V15.1613ZM19.9887 9.64843C19.981 9.57306 19.9697 9.49811 19.9548 9.42383L19.3419 6.35617C19.1754 5.52327 18.5604 4.8748 17.7816 4.6281C18.1535 4.27512 18.3871 3.7777 18.3871 3.22581V1.93548C18.3871 1.42056 18.1867 0.934516 17.8204 0.564193C17.4526 0.200403 16.9665 0 16.4516 0C15.3842 0 14.5161 0.868024 14.5161 1.93548H13.5484V2.58065H14.5161V3.22581C14.5161 4.06089 15.0487 4.77194 15.7913 5.04286L12.87 7.96419L9.91968 7.49258L8.79677 4.96456L10.3774 2.41194C11.0619 1.30544 12.2473 0.645161 13.5484 0.645161V0C12.0226 0 10.6319 0.774476 9.82911 2.07218L7.02415 6.60121L2.25806 2.08609C1.70395 1.5581 1.05294 1.29032 0.322581 1.29032H0V13.0149L0.558992 12.4132C1.42484 11.4809 2.60065 10.9677 3.87097 10.9677C4.17073 10.9677 4.4706 10.9971 4.7623 11.0552C6.43649 11.3923 7.80036 12.6755 8.23681 14.3262C8.33641 14.6971 8.3871 15.0868 8.3871 15.4839V16.4516H15.4131L15.2075 17.4833C15.2019 17.5087 15.1865 17.5299 15.1655 17.5403L14.269 17.9891C14.0236 18.1116 13.871 18.3578 13.871 18.6322C13.871 19.0307 14.1952 19.3548 14.5936 19.3548H19.3548C19.7106 19.3548 20 19.0655 20 18.7097V9.87097C20 9.79585 19.9964 9.72419 19.9887 9.64843ZM15.9422 17.0968L16.0842 16.3861C16.3007 16.2813 16.4516 16.0597 16.4516 15.7969L16.3549 12.5742C16.3549 12.1891 16.134 11.8545 15.8065 11.6991V10.9604C16.1651 10.9487 16.5227 10.9165 16.8777 10.864C17.2355 12.6126 17.4194 14.4059 17.4194 16.2001V17.0968H15.9422ZM17.5123 10.7483C18.1313 10.619 18.7396 10.4309 19.3244 10.1797L19.3548 10.1668V17.0968H18.0645V16.2001C18.0645 14.3626 17.8765 12.5265 17.5123 10.7483ZM18.7097 6.48294L19.3093 9.48508L19.0694 9.5875C18.4296 9.86232 17.7598 10.0611 17.0736 10.1797C16.6397 10.2597 16.1906 10.2987 15.7375 10.3112C15.7019 10.1468 15.6571 9.98423 15.5935 9.82738C15.4962 9.57867 15.3613 9.34681 15.1942 9.13262L17.7019 6.62488C17.9325 6.3946 18.0645 6.07641 18.0645 5.75165C18.0645 5.65036 18.0485 5.55222 18.0248 5.45649C18.368 5.6929 18.6235 6.05234 18.7097 6.48294ZM15.1613 10.9097V11.5487L12.2581 11.0207V10.3226H15.0816C15.1144 10.441 15.1373 10.562 15.1503 10.6842C15.1587 10.7594 15.1613 10.8345 15.1613 10.9096V10.9097ZM16.9994 5.18778C17.0906 5.21359 17.1758 5.26419 17.2461 5.33456C17.3012 5.38915 17.3448 5.45413 17.3746 5.52574C17.4043 5.59735 17.4195 5.67415 17.4194 5.75169C17.4194 5.90653 17.3562 6.05835 17.2461 6.16875L14.7406 8.67427C14.4171 8.40621 14.0439 8.21593 13.6371 8.10944L16.4122 5.33427C16.5633 5.18323 16.7819 5.11911 16.9994 5.18778ZM16.4516 0.645161C16.7935 0.644586 17.1216 0.779501 17.3642 1.02036C17.6077 1.26673 17.7419 1.59194 17.7419 1.93548H15.1613C15.1613 1.22387 15.74 0.645161 16.4516 0.645161ZM15.1613 3.22581V2.58065H17.7419V3.22581C17.7419 3.93742 17.1632 4.51613 16.4516 4.51613C15.74 4.51613 15.1613 3.93742 15.1613 3.22581ZM8.3852 5.62911L9.1594 7.37133L7.56835 7.11677L7.50254 7.05456L8.3852 5.62911ZM1.81359 2.55355L6.61036 7.09677H5.59161L4.40589 6.20714L1.25093 3.05254C1.07835 2.88069 0.871976 2.75294 0.645161 2.67294V1.95944C1.07581 2.02476 1.46734 2.22387 1.81359 2.55355ZM1.29032 6.6129C1.29032 6.6671 1.29585 6.72097 1.30355 6.77419H0.645161V3.38899C0.698105 3.42427 0.748629 3.46286 0.794476 3.50835L2.76964 5.48387H2.41935C1.79673 5.48387 1.29032 5.99028 1.29032 6.6129ZM2.41935 6.12903H3.41484L3.96548 6.67968L4.51927 7.09677H2.41935C2.29031 7.09662 2.16657 7.04537 2.0752 6.95423C2.059 6.93836 2.04439 6.92094 2.03157 6.90222C1.96968 6.8204 1.93548 6.71754 1.93548 6.6129C1.93548 6.34609 2.15254 6.12903 2.41935 6.12903ZM0.645161 11.4556V7.41935H1.62927C1.84129 7.62681 2.12105 7.74194 2.41935 7.74194H5.15359C5.11921 8.64595 4.9335 9.5378 4.60419 10.3804C4.36129 10.3462 4.11653 10.3226 3.87097 10.3226C2.69577 10.3226 1.55508 10.7286 0.645161 11.4556ZM5.24617 10.5081C5.57899 9.62105 5.76456 8.69331 5.79875 7.74194H7.39448L13.259 8.67976C13.7426 8.75677 14.1788 8.98391 14.5207 9.33766C14.6242 9.44411 14.7155 9.55742 14.7938 9.67742H11.6129V11.5597L15.4349 12.2541C15.5942 12.2787 15.7098 12.4132 15.71 12.5838L15.7483 13.871H8.77254C8.23544 12.2426 6.89835 10.9677 5.24617 10.5081ZM8.94093 14.5161H15.7677L15.8065 15.8065H9.03226V15.4839C9.03226 15.1554 9.00093 14.8313 8.94089 14.5161H8.94093ZM14.5161 18.6322C14.5161 18.6045 14.5322 18.5788 14.5571 18.5662L15.454 18.1174C15.611 18.0387 15.7298 17.9057 15.7965 17.7419H17.0204L16.5267 17.9891C16.2817 18.1116 16.129 18.3578 16.129 18.6322V18.7097H14.5936C14.5487 18.7097 14.5161 18.6771 14.5161 18.6322ZM16.7742 18.7097V18.6322C16.7742 18.6045 16.7902 18.5788 16.8152 18.5662L17.6665 18.1403C17.8349 18.0562 17.9546 17.9116 18.0165 17.7423H19.3548V18.71H16.7742V18.7097Z" fill="#111111"/>
</g>
<defs>
<clipPath id="clip0_4001_566">
<rect width="20" height="20" fill="white"/>
</clipPath>
</defs>
</svg>
