<svg width="40" height="40" viewBox="0 0 40 40" fill="none" xmlns="http://www.w3.org/2000/svg">
<path d="M18.275 32.5H5.83329C5.17025 32.5 4.53437 32.2366 4.06553 31.7678C3.59669 31.2989 3.33329 30.663 3.33329 30V12.5H30.8333V17.7667C30.8333 17.9877 30.9211 18.1996 31.0774 18.3559C31.2337 18.5122 31.4456 18.6 31.6666 18.6C31.8876 18.6 32.0996 18.5122 32.2559 18.3559C32.4122 18.1996 32.5 17.9877 32.5 17.7667V8.33332C32.4986 7.22866 32.0592 6.16962 31.2781 5.38851C30.497 4.60739 29.438 4.16798 28.3333 4.16666H26.6666C26.6666 3.50362 26.4032 2.86773 25.9344 2.39889C25.4656 1.93005 24.8297 1.66666 24.1666 1.66666C23.5036 1.66666 22.8677 1.93005 22.3989 2.39889C21.93 2.86773 21.6666 3.50362 21.6666 4.16666H12.5C12.5 3.50362 12.2366 2.86773 11.7677 2.39889C11.2989 1.93005 10.663 1.66666 9.99996 1.66666C9.33692 1.66666 8.70103 1.93005 8.23219 2.39889C7.76335 2.86773 7.49996 3.50362 7.49996 4.16666H5.83329C4.72863 4.16798 3.66959 4.60739 2.88848 5.38851C2.10736 6.16962 1.66795 7.22866 1.66663 8.33332V30C1.66795 31.1047 2.10736 32.1637 2.88848 32.9448C3.66959 33.7259 4.72863 34.1653 5.83329 34.1667H18.275C18.496 34.1667 18.7079 34.0789 18.8642 33.9226C19.0205 33.7663 19.1083 33.5543 19.1083 33.3333C19.1083 33.1123 19.0205 32.9003 18.8642 32.7441C18.7079 32.5878 18.496 32.5 18.275 32.5ZM23.3333 4.16666C23.3333 3.94564 23.4211 3.73368 23.5774 3.5774C23.7337 3.42112 23.9456 3.33332 24.1666 3.33332C24.3876 3.33332 24.5996 3.42112 24.7559 3.5774C24.9122 3.73368 25 3.94564 25 4.16666V5.83332C25 6.05434 24.9122 6.2663 24.7559 6.42258C24.5996 6.57886 24.3876 6.66666 24.1666 6.66666C23.9456 6.66666 23.7337 6.57886 23.5774 6.42258C23.4211 6.2663 23.3333 6.05434 23.3333 5.83332V4.16666ZM9.16663 4.16666C9.16663 3.94564 9.25442 3.73368 9.41071 3.5774C9.56699 3.42112 9.77895 3.33332 9.99996 3.33332C10.221 3.33332 10.4329 3.42112 10.5892 3.5774C10.7455 3.73368 10.8333 3.94564 10.8333 4.16666V5.83332C10.8333 6.05434 10.7455 6.2663 10.5892 6.42258C10.4329 6.57886 10.221 6.66666 9.99996 6.66666C9.77895 6.66666 9.56699 6.57886 9.41071 6.42258C9.25442 6.2663 9.16663 6.05434 9.16663 5.83332V4.16666ZM3.33329 8.33332C3.33329 7.67028 3.59669 7.0344 4.06553 6.56556C4.53437 6.09671 5.17025 5.83332 5.83329 5.83332H7.49996C7.49996 6.49636 7.76335 7.13225 8.23219 7.60109C8.70103 8.06993 9.33692 8.33332 9.99996 8.33332C10.663 8.33332 11.2989 8.06993 11.7677 7.60109C12.2366 7.13225 12.5 6.49636 12.5 5.83332H21.6666C21.6666 6.49636 21.93 7.13225 22.3989 7.60109C22.8677 8.06993 23.5036 8.33332 24.1666 8.33332C24.8297 8.33332 25.4656 8.06993 25.9344 7.60109C26.4032 7.13225 26.6666 6.49636 26.6666 5.83332H28.3333C28.9963 5.83332 29.6322 6.09671 30.1011 6.56556C30.5699 7.0344 30.8333 7.67028 30.8333 8.33332V10.8333H3.33329V8.33332Z" fill="#3B16A1"/>
<path d="M11.6666 16.6667C11.6666 16.2246 11.491 15.8007 11.1784 15.4882C10.8659 15.1756 10.4419 15 9.99992 15H7.49992C7.05789 15 6.63397 15.1756 6.32141 15.4882C6.00885 15.8007 5.83325 16.2246 5.83325 16.6667V19.1667C5.83325 19.6087 6.00885 20.0326 6.32141 20.3452C6.63397 20.6577 7.05789 20.8333 7.49992 20.8333H9.99992C10.4419 20.8333 10.8659 20.6577 11.1784 20.3452C11.491 20.0326 11.6666 19.6087 11.6666 19.1667V16.6667ZM7.49992 19.1667V16.6667H9.99992V19.1667H7.49992ZM19.9999 16.6667C19.9999 16.2246 19.8243 15.8007 19.5118 15.4882C19.1992 15.1756 18.7753 15 18.3333 15H15.8333C15.3912 15 14.9673 15.1756 14.6547 15.4882C14.3422 15.8007 14.1666 16.2246 14.1666 16.6667V19.1667C14.1666 19.6087 14.3422 20.0326 14.6547 20.3452C14.9673 20.6577 15.3912 20.8333 15.8333 20.8333H18.3333C18.7753 20.8333 19.1992 20.6577 19.5118 20.3452C19.8243 20.0326 19.9999 19.6087 19.9999 19.1667V16.6667ZM15.8333 19.1667V16.6667H18.3333V19.1667H15.8333ZM27.4999 18.45C27.7209 18.45 27.9329 18.3622 28.0892 18.2059C28.2455 18.0496 28.3333 17.8377 28.3333 17.6167V16.6667C28.3333 16.2246 28.1577 15.8007 27.8451 15.4882C27.5325 15.1756 27.1086 15 26.6666 15H24.1666C23.7246 15 23.3006 15.1756 22.9881 15.4882C22.6755 15.8007 22.4999 16.2246 22.4999 16.6667V19.0667C22.4999 19.2877 22.5877 19.4996 22.744 19.6559C22.9003 19.8122 23.1122 19.9 23.3333 19.9C23.5543 19.9 23.7662 19.8122 23.9225 19.6559C24.0788 19.4996 24.1666 19.2877 24.1666 19.0667V16.6667H26.6666V17.6167C26.6666 17.8377 26.7544 18.0496 26.9107 18.2059C27.0669 18.3622 27.2789 18.45 27.4999 18.45ZM9.99992 23.3333H7.49992C7.05789 23.3333 6.63397 23.5089 6.32141 23.8215C6.00885 24.1341 5.83325 24.558 5.83325 25V27.5C5.83325 27.942 6.00885 28.366 6.32141 28.6785C6.63397 28.9911 7.05789 29.1667 7.49992 29.1667H9.99992C10.4419 29.1667 10.8659 28.9911 11.1784 28.6785C11.491 28.366 11.6666 27.942 11.6666 27.5V25C11.6666 24.558 11.491 24.1341 11.1784 23.8215C10.8659 23.5089 10.4419 23.3333 9.99992 23.3333ZM7.49992 27.5V25H9.99992V27.5H7.49992ZM18.9083 23.4425C18.7253 23.3698 18.5301 23.3328 18.3333 23.3333H15.8333C15.3912 23.3333 14.9673 23.5089 14.6547 23.8215C14.3422 24.1341 14.1666 24.558 14.1666 25V27.5C14.1666 27.942 14.3422 28.366 14.6547 28.6785C14.9673 28.9911 15.3912 29.1667 15.8333 29.1667H17.5333C17.7543 29.1667 17.9662 29.0789 18.1225 28.9226C18.2788 28.7663 18.3666 28.5543 18.3666 28.3333C18.3666 28.1123 18.2788 27.9004 18.1225 27.7441C17.9662 27.5878 17.7543 27.5 17.5333 27.5H15.8333V25L18.2916 24.9908C18.4965 25.0706 18.7247 25.0662 18.9263 24.9785C19.128 24.8908 19.2868 24.7269 19.3682 24.5226C19.4495 24.3183 19.4468 24.0902 19.3607 23.8878C19.2745 23.6855 19.1119 23.5254 18.9083 23.4425ZM29.1666 20C27.3536 20 25.5813 20.5376 24.0739 21.5449C22.5664 22.5521 21.3915 23.9837 20.6977 25.6587C20.0039 27.3337 19.8224 29.1768 20.1761 30.955C20.5298 32.7332 21.4028 34.3665 22.6848 35.6485C23.9668 36.9305 25.6001 37.8035 27.3783 38.1572C29.1564 38.5109 30.9995 38.3294 32.6745 37.6356C34.3495 36.9418 35.7811 35.7668 36.7884 34.2594C37.7956 32.7519 38.3333 30.9797 38.3333 29.1667C38.3304 26.7364 37.3637 24.4065 35.6452 22.688C33.9268 20.9696 31.5969 20.0029 29.1666 20ZM29.1666 36.6667C27.6832 36.6667 26.2332 36.2268 24.9998 35.4027C23.7664 34.5786 22.8051 33.4072 22.2375 32.0368C21.6698 30.6663 21.5213 29.1583 21.8107 27.7035C22.1001 26.2486 22.8144 24.9123 23.8633 23.8634C24.9122 22.8145 26.2485 22.1002 27.7034 21.8108C29.1583 21.5214 30.6663 21.6699 32.0367 22.2376C33.4072 22.8052 34.5785 23.7665 35.4026 24.9999C36.2267 26.2333 36.6666 27.6833 36.6666 29.1667C36.6644 31.1551 35.8735 33.0615 34.4674 34.4675C33.0614 35.8736 31.155 36.6645 29.1666 36.6667Z" fill="#3B16A1"/>
<path d="M29.9999 28.8217V25C29.9999 24.779 29.9121 24.567 29.7558 24.4107C29.5996 24.2545 29.3876 24.1667 29.1666 24.1667C28.9456 24.1667 28.7336 24.2545 28.5773 24.4107C28.421 24.567 28.3333 24.779 28.3333 25V29.1667C28.3333 29.3877 28.4211 29.5996 28.5774 29.7558L30.2441 31.4225C30.4013 31.5743 30.6118 31.6583 30.8303 31.6564C31.0488 31.6545 31.2578 31.5668 31.4123 31.4123C31.5668 31.2578 31.6544 31.0488 31.6563 30.8303C31.6582 30.6118 31.5742 30.4013 31.4224 30.2442L29.9999 28.8217Z" fill="#3B16A1"/>
</svg>
