<svg width="40" height="40" viewBox="0 0 40 40" fill="none" xmlns="http://www.w3.org/2000/svg">
<path d="M9.375 35H10.625V36.25H9.375V35Z" fill="#3B16A1"/>
<path d="M23.75 27.5H13.125V18.125C13.125 17.9592 13.0592 17.8003 12.9419 17.6831C12.8247 17.5658 12.6658 17.5 12.5 17.5H1.25C1.08424 17.5 0.925268 17.5658 0.808058 17.6831C0.690848 17.8003 0.625 17.9592 0.625 18.125V38.125C0.625 38.2908 0.690848 38.4497 0.808058 38.5669C0.925268 38.6842 1.08424 38.75 1.25 38.75H23.75C23.9158 38.75 24.0747 38.6842 24.1919 38.5669C24.3092 38.4497 24.375 38.2908 24.375 38.125V28.125C24.375 27.9592 24.3092 27.8003 24.1919 27.6831C24.0747 27.5658 23.9158 27.5 23.75 27.5ZM16.875 28.75H19.375V31.25H16.875V28.75ZM5.625 18.75H8.125V21.25H5.625V18.75ZM1.875 18.75H4.375V21.875C4.375 22.0408 4.44085 22.1997 4.55806 22.3169C4.67527 22.4342 4.83424 22.5 5 22.5H8.75C8.91576 22.5 9.07473 22.4342 9.19194 22.3169C9.30915 22.1997 9.375 22.0408 9.375 21.875V18.75H11.875V27.5H1.875V18.75ZM5.625 28.75H8.125V31.25H5.625V28.75ZM1.875 28.75H4.375V31.875C4.375 32.0408 4.44085 32.1997 4.55806 32.3169C4.67527 32.4342 4.83424 32.5 5 32.5H8.75C8.91576 32.5 9.07473 32.4342 9.19194 32.3169C9.30915 32.1997 9.375 32.0408 9.375 31.875V28.75H11.875V37.5H1.875V28.75ZM23.125 37.5H13.125V28.75H15.625V31.875C15.625 32.0408 15.6908 32.1997 15.8081 32.3169C15.9253 32.4342 16.0842 32.5 16.25 32.5H20C20.1658 32.5 20.3247 32.4342 20.4419 32.3169C20.5592 32.1997 20.625 32.0408 20.625 31.875V28.75H23.125V37.5Z" fill="#3B16A1"/>
<path d="M20.625 35H21.875V36.25H20.625V35ZM9.375 25H10.625V26.25H9.375V25Z" fill="#3B16A1"/>
<path d="M37.3534 8.73252C37.4015 8.74417 37.4507 8.75005 37.5001 8.75002C37.6096 8.74994 37.7172 8.72116 37.8121 8.66655C37.9071 8.61194 37.986 8.5334 38.0412 8.43877C38.0979 8.33885 38.1269 8.22555 38.1251 8.11065V5.62502C38.1251 5.48477 38.0779 5.3486 37.9911 5.23842C37.9044 5.12823 37.7831 5.05043 37.6467 5.01752L19.5217 0.642521C19.4254 0.61916 19.3248 0.61916 19.2284 0.642521L1.10345 5.01752C0.967113 5.05043 0.84581 5.12823 0.759046 5.23842C0.672281 5.3486 0.625099 5.48477 0.625087 5.62502V8.10729C0.622951 8.23816 0.660363 8.36662 0.73243 8.47588C0.803946 8.58105 0.905798 8.66194 1.02443 8.70779C1.14306 8.75364 1.27284 8.76226 1.39649 8.73252L2.50009 8.46619V16.25H3.75009V8.16447L19.3751 4.39291L35.0001 8.16447V37.5H31.2501V13.125C31.2501 12.9593 31.1842 12.8003 31.067 12.6831C30.9498 12.5659 30.7908 12.5 30.6251 12.5H8.12509C7.95933 12.5 7.80035 12.5659 7.68314 12.6831C7.56593 12.8003 7.50009 12.9593 7.50009 13.125V15.625C7.50009 15.7908 7.56593 15.9498 7.68314 16.067C7.80035 16.1842 7.95933 16.25 8.12509 16.25H30.0001V17.5H14.3751V18.75H30.0001V20H14.3751V21.25H30.0001V22.5H14.3751V23.75H30.0001V37.5H25.6251V38.75H38.1251V37.5H36.2501V8.46619L37.3534 8.73252ZM8.75009 15V13.75H30.0001V15H8.75009ZM19.3751 3.12502C19.3257 3.125 19.2765 3.13087 19.2284 3.14252L1.87509 7.33119V6.11721L19.3751 1.89299L36.8751 6.11721V7.33127L19.5217 3.14252C19.4737 3.13087 19.4245 3.125 19.3751 3.12502Z" fill="#3B16A1"/>
<path d="M20.625 10.625C21.1223 10.625 21.5992 10.4275 21.9508 10.0758C22.3025 9.72419 22.5 9.24728 22.5 8.75C22.5 8.25272 22.3025 7.77581 21.9508 7.42417C21.5992 7.07254 21.1223 6.875 20.625 6.875H18.125C17.6277 6.875 17.1508 7.07254 16.7992 7.42417C16.4475 7.77581 16.25 8.25272 16.25 8.75C16.25 9.24728 16.4475 9.72419 16.7992 10.0758C17.1508 10.4275 17.6277 10.625 18.125 10.625H20.625ZM17.5 8.75C17.5002 8.5843 17.5661 8.42543 17.6833 8.30826C17.8004 8.19109 17.9593 8.12519 18.125 8.125H20.625C20.7908 8.125 20.9497 8.19085 21.0669 8.30806C21.1842 8.42527 21.25 8.58424 21.25 8.75C21.25 8.91576 21.1842 9.07473 21.0669 9.19194C20.9497 9.30915 20.7908 9.375 20.625 9.375H18.125C17.9593 9.37481 17.8004 9.30891 17.6833 9.19174C17.5661 9.07457 17.5002 8.9157 17.5 8.75Z" fill="#3B16A1"/>
</svg>
