<svg width="40" height="40" viewBox="0 0 40 40" fill="none" xmlns="http://www.w3.org/2000/svg">
<g clip-path="url(#clip0_4001_480)">
<path d="M33.0817 25.552C33.0809 24.8627 32.8068 24.2019 32.3194 23.7145C31.832 23.2272 31.1712 22.953 30.482 22.9523H22.6148C23.7013 20.3191 23.7052 17.3636 22.6258 14.7275C22.6164 14.7044 22.6056 14.6818 22.5934 14.66C22.3715 14.2608 22.0426 13.9314 21.6438 13.7089C21.2449 13.4864 20.7918 13.3797 20.3356 13.4006C19.8793 13.4216 19.438 13.5695 19.0612 13.8276C18.6844 14.0858 18.3871 14.4439 18.2028 14.8618C18.1737 14.9278 18.1562 14.9983 18.1511 15.0702L17.9654 17.7067C17.6874 19.2219 16.8699 20.585 15.6641 21.5438C15.1811 21.7133 14.2969 22.313 11.9902 24.5079V24.4423C11.9898 24.0968 11.8524 23.7654 11.608 23.5211C11.3637 23.2767 11.0323 23.1393 10.6868 23.139H4.12543C3.77986 23.1393 3.44855 23.2768 3.2042 23.5211C2.95985 23.7655 2.82242 24.0968 2.82207 24.4423V37.5361C2.82232 37.8817 2.9597 38.2131 3.20406 38.4576C3.44843 38.702 3.77979 38.8395 4.12543 38.8398H10.6864C11.0319 38.8395 11.3633 38.7021 11.6076 38.4577C11.852 38.2134 11.9895 37.8821 11.9898 37.5365V37.4791C13.794 37.877 14.7357 38.35 15.834 39.3703C16.2658 39.7811 16.841 40.0071 17.437 40H27.6069C28.1004 40.0002 28.5838 39.8598 29.0004 39.5953C29.4171 39.3309 29.7498 38.9532 29.9597 38.5066C30.1695 38.0599 30.2478 37.5627 30.1855 37.0732C30.1231 36.5836 29.9226 36.122 29.6075 35.7422C30.4191 35.254 30.9965 34.3799 30.9965 33.4513C30.9971 32.8735 30.8043 32.3121 30.4488 31.8567C31.2755 31.3671 31.8686 30.4633 31.8686 29.5018C31.8693 28.9598 31.6995 28.4312 31.3834 27.9909C31.8815 27.8062 32.3111 27.4735 32.6147 27.0375C32.9182 26.6016 33.0812 26.0832 33.0817 25.552ZM10.7398 37.5363C10.7393 37.5503 10.7335 37.5636 10.7236 37.5735C10.7137 37.5834 10.7004 37.5892 10.6864 37.5897H4.12543C4.11144 37.5892 4.09816 37.5834 4.08826 37.5735C4.07836 37.5636 4.07257 37.5503 4.07207 37.5363V24.4426C4.07259 24.4286 4.07838 24.4153 4.08828 24.4054C4.09817 24.3955 4.11144 24.3897 4.12543 24.3892H10.6864C10.7004 24.3897 10.7136 24.3955 10.7235 24.4054C10.7335 24.4153 10.7393 24.4286 10.7398 24.4426V37.5363ZM30.482 26.9016H28.3097C28.144 26.9016 27.985 26.9674 27.8678 27.0846C27.7506 27.2018 27.6847 27.3608 27.6847 27.5266C27.6847 27.6923 27.7506 27.8513 27.8678 27.9685C27.985 28.0857 28.144 28.1516 28.3097 28.1516H29.2689C29.6268 28.1521 29.9698 28.2944 30.2228 28.5474C30.4758 28.8004 30.6181 29.1434 30.6186 29.5013C30.6186 30.2044 29.9238 30.9197 29.2107 30.9814C28.9481 30.8948 28.6733 30.8508 28.3968 30.851C28.2311 30.851 28.0721 30.9169 27.9549 31.0341C27.8377 31.1513 27.7718 31.3103 27.7718 31.476C27.7718 31.6418 27.8377 31.8008 27.9549 31.918C28.0721 32.0352 28.2311 32.101 28.3968 32.101C28.5549 32.1009 28.7117 32.1286 28.8601 32.1829C28.8766 32.1902 28.8933 32.1967 28.9105 32.2025C29.1577 32.3046 29.369 32.4776 29.5178 32.6998C29.6666 32.922 29.7461 33.1833 29.7464 33.4507C29.7464 34.1398 29.0239 34.8413 28.2883 34.891C28.0662 34.8307 27.837 34.8002 27.6068 34.8004C27.4411 34.8004 27.2821 34.8662 27.1649 34.9835C27.0477 35.1007 26.9818 35.2596 26.9818 35.4254C26.9818 35.5912 27.0477 35.7501 27.1649 35.8673C27.2821 35.9845 27.4411 36.0504 27.6068 36.0504C27.7377 36.0503 27.8679 36.0693 27.9933 36.1068C28.0081 36.1121 28.0232 36.117 28.0385 36.1212C28.3419 36.2234 28.599 36.4302 28.764 36.7046C28.929 36.9789 28.9912 37.303 28.9393 37.6189C28.8874 37.9348 28.725 38.222 28.4809 38.4292C28.2368 38.6364 27.9271 38.7501 27.6069 38.75H17.437C17.2983 38.7531 17.1603 38.7286 17.0312 38.6779C16.902 38.6271 16.7843 38.5512 16.6847 38.4545C15.3574 37.2213 14.1971 36.6599 11.9898 36.2006V26.2434L12.1007 26.1355C15.1683 23.1563 15.9198 22.7695 16.0793 22.7226C16.172 22.7035 16.2591 22.6637 16.3342 22.6062C17.8448 21.4491 18.8678 19.7686 19.2018 17.8952C19.2057 17.8733 19.2085 17.8512 19.2101 17.829L19.3898 15.2786C19.4913 15.0916 19.6406 14.9348 19.8224 14.8242C20.0042 14.7136 20.2121 14.6532 20.4249 14.6491C20.6376 14.6449 20.8477 14.6973 21.0336 14.8007C21.2196 14.9041 21.3749 15.055 21.4836 15.238C22.0055 16.5283 22.2397 17.9169 22.17 19.307C22.1002 20.6972 21.7282 22.0554 21.0797 23.287C21.0297 23.3822 21.0051 23.4888 21.0083 23.5963C21.0116 23.7039 21.0425 23.8088 21.0981 23.9009C21.1538 23.9929 21.2323 24.0691 21.326 24.122C21.4197 24.1748 21.5255 24.2026 21.6331 24.2026H30.482C30.8382 24.2053 31.1789 24.3487 31.4298 24.6015C31.6807 24.8543 31.8215 25.1961 31.8215 25.5523C31.8215 25.9085 31.6807 26.2503 31.4298 26.5031C31.1789 26.7559 30.8382 26.8993 30.482 26.902V26.9016ZM8.62113 26.4422V26.5176C8.62113 26.6833 8.55528 26.8423 8.43807 26.9595C8.32086 27.0767 8.16189 27.1426 7.99613 27.1426C7.83037 27.1426 7.6714 27.0767 7.55419 26.9595C7.43698 26.8423 7.37113 26.6833 7.37113 26.5176V26.4422C7.37113 26.2764 7.43698 26.1175 7.55419 26.0002C7.6714 25.883 7.83037 25.8172 7.99613 25.8172C8.16189 25.8172 8.32086 25.883 8.43807 26.0002C8.55528 26.1175 8.62113 26.2764 8.62113 26.4422ZM27.375 5.35797C27.3374 5.24196 27.2665 5.13952 27.1713 5.06326C27.0761 4.98701 26.9607 4.94028 26.8393 4.92883L22.3596 4.50696L20.5737 0.376956C20.5253 0.265 20.4452 0.169654 20.3433 0.102672C20.2413 0.0356906 20.122 0 20 0C19.8781 0 19.7588 0.0356906 19.6568 0.102672C19.5549 0.169654 19.4748 0.265 19.4264 0.376956L17.6407 4.50688L13.1611 4.92875C13.0397 4.9402 12.9243 4.98693 12.8291 5.06318C12.7339 5.13943 12.6631 5.24186 12.6254 5.35786C12.5877 5.47386 12.5848 5.59836 12.617 5.716C12.6492 5.83364 12.7151 5.93929 12.8066 6.01993L16.1826 8.9943L15.1996 13.3849C15.173 13.504 15.1818 13.6282 15.2249 13.7423C15.268 13.8564 15.3435 13.9554 15.4422 14.0271C15.5409 14.0987 15.6584 14.14 15.7802 14.1457C15.902 14.1515 16.0229 14.1214 16.1279 14.0593L20 11.7678L23.8721 14.0595C23.977 14.1216 24.0979 14.1516 24.2197 14.1459C24.3416 14.1402 24.459 14.0989 24.5577 14.0272C24.6564 13.9555 24.7319 13.8565 24.775 13.7424C24.8181 13.6283 24.8269 13.5041 24.8003 13.3851L23.8174 8.99446L27.1934 6.02008C27.285 5.93949 27.351 5.83386 27.3833 5.7162C27.4156 5.59855 27.4127 5.47402 27.375 5.35797ZM22.7139 8.30102C22.6298 8.37506 22.5672 8.47032 22.5326 8.57683C22.498 8.68334 22.4927 8.7972 22.5171 8.90649L23.2651 12.2475L20.3188 10.5037C20.2224 10.4466 20.1124 10.4165 20.0004 10.4165C19.8884 10.4165 19.7785 10.4466 19.6821 10.5037L16.7357 12.2475L17.4833 8.90625C17.5078 8.79696 17.5024 8.68311 17.4678 8.5766C17.4332 8.47008 17.3706 8.37482 17.2866 8.30079L14.7178 6.0375L18.1264 5.71641C18.2379 5.70589 18.3445 5.66562 18.4351 5.59978C18.5257 5.53395 18.5969 5.44499 18.6414 5.34219L20 2.19993L21.3587 5.34243C21.4032 5.44522 21.4744 5.53419 21.565 5.60002C21.6556 5.66585 21.7622 5.70613 21.8737 5.71664L25.2824 6.03774L22.7139 8.30102ZM38.3784 9.02032C38.3407 8.90431 38.2699 8.80186 38.1747 8.7256C38.0795 8.64935 37.9641 8.60262 37.8426 8.59118L34.6858 8.29383L33.4271 5.38344C33.3787 5.27148 33.2986 5.17614 33.1967 5.10916C33.0948 5.04218 32.9755 5.00648 32.8535 5.00648C32.7315 5.00648 32.6122 5.04218 32.5103 5.10916C32.4083 5.17614 32.3282 5.27148 32.2798 5.38344L31.0215 8.29383L27.8646 8.59118C27.7432 8.60261 27.6278 8.64933 27.5325 8.72559C27.4373 8.80184 27.3665 8.90429 27.3288 9.02031C27.2911 9.13632 27.2882 9.26083 27.3204 9.37849C27.3526 9.49614 27.4186 9.6018 27.5101 9.68243L29.8893 11.7784L29.1966 14.8727C29.17 14.9917 29.1787 15.1159 29.2219 15.2301C29.265 15.3442 29.3406 15.4432 29.4393 15.5149C29.538 15.5865 29.6555 15.6278 29.7774 15.6335C29.8992 15.6391 30.0201 15.609 30.125 15.5469L32.8537 13.932L35.5821 15.5469C35.6871 15.609 35.808 15.6391 35.9298 15.6334C36.0517 15.6276 36.1692 15.5864 36.2679 15.5147C36.3666 15.443 36.4421 15.344 36.4852 15.2299C36.5283 15.1158 36.5371 14.9915 36.5104 14.8725L35.8177 11.7783L38.1968 9.68227C38.2883 9.60165 38.3542 9.49602 38.3864 9.3784C38.4186 9.26078 38.4157 9.1363 38.378 9.02032H38.3784ZM34.7143 11.0851C34.6303 11.1591 34.5677 11.2544 34.5331 11.3609C34.4985 11.4674 34.4932 11.5813 34.5176 11.6906L34.9754 13.7351L33.1719 12.668C33.0755 12.6109 32.9656 12.5808 32.8536 12.5808C32.7415 12.5808 32.6316 12.6109 32.5352 12.668L30.7323 13.7351L31.19 11.6906C31.2144 11.5813 31.2091 11.4674 31.1745 11.3609C31.1399 11.2544 31.0773 11.1591 30.9932 11.0851L29.4211 9.70016L31.5071 9.5036C31.6186 9.4931 31.7252 9.45282 31.8158 9.38699C31.9064 9.32116 31.9777 9.23218 32.0221 9.12938L32.8536 7.20633L33.685 9.12938C33.7294 9.23218 33.8007 9.32116 33.8913 9.38699C33.9819 9.45282 34.0885 9.4931 34.2 9.5036L36.286 9.70016L34.7143 11.0851ZM12.1362 8.59118L8.97941 8.29383L7.72027 5.38344C7.67186 5.27148 7.59175 5.17614 7.48982 5.10916C7.38788 5.04218 7.26857 5.00648 7.1466 5.00648C7.02463 5.00648 6.90532 5.04218 6.80338 5.10916C6.70144 5.17614 6.62134 5.27148 6.57293 5.38344L5.31465 8.29383L2.15785 8.59118C2.0364 8.60261 1.92095 8.64933 1.82574 8.72559C1.73052 8.80184 1.65971 8.90429 1.62201 9.02031C1.58432 9.13632 1.5814 9.26083 1.61362 9.37849C1.64584 9.49614 1.71178 9.6018 1.80332 9.68243L4.18238 11.7784L3.48965 14.8727C3.46304 14.9917 3.47183 15.1159 3.51495 15.23C3.55806 15.3441 3.63362 15.443 3.7323 15.5147C3.83098 15.5864 3.94847 15.6276 4.0703 15.6333C4.19213 15.6391 4.31297 15.609 4.41793 15.5469L7.1466 13.932L9.87504 15.5469C9.98 15.609 10.1009 15.639 10.2227 15.6333C10.3445 15.6276 10.462 15.5863 10.5607 15.5146C10.6594 15.4429 10.7349 15.3439 10.778 15.2298C10.8211 15.1157 10.8299 14.9915 10.8032 14.8725L10.1105 11.7783L12.4896 9.68227C12.5812 9.60164 12.6471 9.49599 12.6793 9.37833C12.7116 9.26068 12.7086 9.13617 12.671 9.02015C12.6333 8.90413 12.5624 8.80168 12.4672 8.72543C12.372 8.64918 12.2566 8.60245 12.1351 8.59102L12.1362 8.59118ZM9.00777 11.0851C8.92374 11.1591 8.86115 11.2544 8.82654 11.3609C8.79194 11.4674 8.78659 11.5813 8.81105 11.6906L9.26871 13.735L7.46496 12.668C7.36857 12.6109 7.25861 12.5808 7.1466 12.5808C7.03459 12.5808 6.92463 12.6109 6.82824 12.668L5.02527 13.7351L5.48301 11.6906C5.50747 11.5813 5.50212 11.4674 5.46751 11.3609C5.43291 11.2544 5.37032 11.1591 5.28629 11.0851L3.71426 9.70016L5.80019 9.5036C5.9117 9.4931 6.01834 9.45282 6.10895 9.38699C6.19957 9.32116 6.27082 9.23218 6.31527 9.12938L7.1466 7.20641L7.97801 9.12938C8.02245 9.23217 8.09369 9.32114 8.18429 9.38697C8.27489 9.4528 8.38151 9.49308 8.49301 9.5036L10.5789 9.70016L9.00777 11.0851Z" fill="#3B16A1"/>
</g>
<defs>
<clipPath id="clip0_4001_480">
<rect width="40" height="40" fill="white"/>
</clipPath>
</defs>
</svg>
