<svg width="40" height="40" viewBox="0 0 40 40" fill="none" xmlns="http://www.w3.org/2000/svg">
<path d="M30.25 16.5C30.25 16.9142 30.5858 17.25 31 17.25C31.4142 17.25 31.75 16.9142 31.75 16.5H30.25ZM20.5 31.75C20.9142 31.75 21.25 31.4142 21.25 31C21.25 30.5858 20.9142 30.25 20.5 30.25V31.75ZM37.7273 27.3636H38.4773H37.7273ZM30.3636 38L29.9476 38.624C30.1995 38.792 30.5277 38.792 30.7797 38.624L30.3636 38ZM23 27.3636H22.25H23ZM7.5 26L8.03033 25.4697C7.73744 25.1768 7.26256 25.1768 6.96967 25.4697L7.5 26ZM8 26.5L8.53033 27.0303C8.82322 26.7374 8.82322 26.2626 8.53033 25.9697L8 26.5ZM7.5 27L6.96967 27.5303C7.26256 27.8232 7.73744 27.8232 8.03033 27.5303L7.5 27ZM7 26.5L6.46967 25.9697C6.17678 26.2626 6.17678 26.7374 6.46967 27.0303L7 26.5ZM11.5 26L12.0303 25.4697C11.7374 25.1768 11.2626 25.1768 10.9697 25.4697L11.5 26ZM12 26.5L12.5303 27.0303C12.8232 26.7374 12.8232 26.2626 12.5303 25.9697L12 26.5ZM11.5 27L10.9697 27.5303C11.2626 27.8232 11.7374 27.8232 12.0303 27.5303L11.5 27ZM11 26.5L10.4697 25.9697C10.1768 26.2626 10.1768 26.7374 10.4697 27.0303L11 26.5ZM15.5 26L16.0303 25.4697C15.7374 25.1768 15.2626 25.1768 14.9697 25.4697L15.5 26ZM16 26.5L16.5303 27.0303C16.8232 26.7374 16.8232 26.2626 16.5303 25.9697L16 26.5ZM15.5 27L14.9697 27.5303C15.2626 27.8232 15.7374 27.8232 16.0303 27.5303L15.5 27ZM15 26.5L14.4697 25.9697C14.1768 26.2626 14.1768 26.7374 14.4697 27.0303L15 26.5ZM30.25 5V16.5H31.75V5H30.25ZM2.25 5V29H3.75V5H2.25ZM5 31.75H20.5V30.25H5V31.75ZM5 3.75H11V2.25H5V3.75ZM10.25 3V13H11.75V3H10.25ZM12 14.75H22V13.25H12V14.75ZM23 3.75H29V2.25H23V3.75ZM23.75 13V3H22.25V13H23.75ZM10.25 13C10.25 13.9665 11.0335 14.75 12 14.75V13.25C11.8619 13.25 11.75 13.1381 11.75 13H10.25ZM22 14.75C22.9665 14.75 23.75 13.9665 23.75 13H22.25C22.25 13.1381 22.1381 13.25 22 13.25V14.75ZM2.25 29C2.25 30.5188 3.48122 31.75 5 31.75V30.25C4.30964 30.25 3.75 29.6904 3.75 29H2.25ZM31.75 5C31.75 3.48122 30.5188 2.25 29 2.25V3.75C29.6904 3.75 30.25 4.30964 30.25 5H31.75ZM3.75 5C3.75 4.30964 4.30964 3.75 5 3.75V2.25C3.48122 2.25 2.25 3.48122 2.25 5H3.75ZM36.9773 27.3636C36.9773 29.9258 35.3121 32.4021 33.501 34.3137C32.6108 35.2534 31.718 36.0224 31.047 36.5568C30.7121 36.8235 30.4339 37.0305 30.2409 37.1699C30.1445 37.2395 30.0694 37.2922 30.0193 37.3269C29.9943 37.3443 29.9755 37.3571 29.9634 37.3653C29.9573 37.3694 29.9529 37.3724 29.9503 37.3742C29.949 37.375 29.9481 37.3756 29.9476 37.3759C29.9474 37.3761 29.9473 37.3762 29.9473 37.3762C29.9473 37.3762 29.9474 37.3761 29.9474 37.3761C29.9475 37.3761 29.9476 37.376 30.3636 38C30.7797 38.624 30.7799 38.6239 30.7801 38.6238C30.7802 38.6237 30.7804 38.6235 30.7807 38.6234C30.7811 38.6231 30.7817 38.6227 30.7823 38.6223C30.7837 38.6214 30.7854 38.6202 30.7877 38.6187C30.7921 38.6157 30.7983 38.6115 30.8062 38.6062C30.8219 38.5955 30.8445 38.58 30.8734 38.56C30.9311 38.52 31.0143 38.4616 31.1192 38.3859C31.3289 38.2344 31.626 38.0132 31.9814 37.7302C32.691 37.1651 33.6392 36.3489 34.5899 35.3454C36.4607 33.3707 38.4773 30.5287 38.4773 27.3636H36.9773ZM30.3636 38C30.7797 37.376 30.7798 37.3761 30.7799 37.3761C30.7799 37.3761 30.78 37.3762 30.78 37.3762C30.78 37.3762 30.7799 37.3761 30.7796 37.3759C30.7792 37.3756 30.7783 37.375 30.777 37.3742C30.7743 37.3724 30.77 37.3694 30.7639 37.3653C30.7518 37.3571 30.733 37.3443 30.708 37.3269C30.6579 37.2922 30.5828 37.2395 30.4863 37.1699C30.2934 37.0305 30.0152 36.8235 29.6803 36.5568C29.0092 36.0224 28.1165 35.2534 27.2263 34.3137C25.4152 32.4021 23.75 29.9258 23.75 27.3636H22.25C22.25 30.5287 24.2666 33.3707 26.1374 35.3454C27.0881 36.3489 28.0362 37.1651 28.7459 37.7302C29.1013 38.0132 29.3984 38.2344 29.6081 38.3859C29.713 38.4616 29.7961 38.52 29.8539 38.56C29.8828 38.58 29.9053 38.5955 29.9211 38.6062C29.929 38.6115 29.9352 38.6157 29.9396 38.6187C29.9418 38.6202 29.9436 38.6214 29.945 38.6223C29.9456 38.6227 29.9462 38.6231 29.9466 38.6234C29.9468 38.6235 29.9471 38.6237 29.9472 38.6238C29.9474 38.6239 29.9476 38.624 30.3636 38ZM23.75 27.3636C23.75 25.6096 24.4468 23.9274 25.6871 22.6871L24.6264 21.6264C23.1048 23.148 22.25 25.2118 22.25 27.3636H23.75ZM25.6871 22.6871C26.9274 21.4468 28.6096 20.75 30.3636 20.75V19.25C28.2118 19.25 26.148 20.1048 24.6264 21.6264L25.6871 22.6871ZM30.3636 20.75C32.1177 20.75 33.7999 21.4468 35.0402 22.6871L36.1008 21.6264C34.5792 20.1048 32.5155 19.25 30.3636 19.25V20.75ZM35.0402 22.6871C36.2805 23.9274 36.9773 25.6096 36.9773 27.3636H38.4773C38.4773 25.2118 37.6224 23.148 36.1008 21.6264L35.0402 22.6871ZM32.0682 27.3636C32.0682 28.305 31.305 29.0682 30.3636 29.0682V30.5682C32.1335 30.5682 33.5682 29.1335 33.5682 27.3636H32.0682ZM30.3636 29.0682C29.4222 29.0682 28.6591 28.305 28.6591 27.3636H27.1591C27.1591 29.1335 28.5938 30.5682 30.3636 30.5682V29.0682ZM28.6591 27.3636C28.6591 26.4222 29.4222 25.6591 30.3636 25.6591V24.1591C28.5938 24.1591 27.1591 25.5938 27.1591 27.3636H28.6591ZM30.3636 25.6591C31.305 25.6591 32.0682 26.4222 32.0682 27.3636H33.5682C33.5682 25.5938 32.1335 24.1591 30.3636 24.1591V25.6591ZM11 3.75H23V2.25H11V3.75ZM6.96967 26.5303L7.46967 27.0303L8.53033 25.9697L8.03033 25.4697L6.96967 26.5303ZM7.46967 25.9697L6.96967 26.4697L8.03033 27.5303L8.53033 27.0303L7.46967 25.9697ZM8.03033 26.4697L7.53033 25.9697L6.46967 27.0303L6.96967 27.5303L8.03033 26.4697ZM7.53033 27.0303L8.03033 26.5303L6.96967 25.4697L6.46967 25.9697L7.53033 27.0303ZM10.9697 26.5303L11.4697 27.0303L12.5303 25.9697L12.0303 25.4697L10.9697 26.5303ZM11.4697 25.9697L10.9697 26.4697L12.0303 27.5303L12.5303 27.0303L11.4697 25.9697ZM12.0303 26.4697L11.5303 25.9697L10.4697 27.0303L10.9697 27.5303L12.0303 26.4697ZM11.5303 27.0303L12.0303 26.5303L10.9697 25.4697L10.4697 25.9697L11.5303 27.0303ZM14.9697 26.5303L15.4697 27.0303L16.5303 25.9697L16.0303 25.4697L14.9697 26.5303ZM15.4697 25.9697L14.9697 26.4697L16.0303 27.5303L16.5303 27.0303L15.4697 25.9697ZM16.0303 26.4697L15.5303 25.9697L14.4697 27.0303L14.9697 27.5303L16.0303 26.4697ZM15.5303 27.0303L16.0303 26.5303L14.9697 25.4697L14.4697 25.9697L15.5303 27.0303Z" fill="#3B16A1"/>
</svg>
