<svg width="20" height="20" viewBox="0 0 20 20" fill="none" xmlns="http://www.w3.org/2000/svg">
<g clip-path="url(#clip0_4001_546)">
<path d="M19.137 8.56754H0.862922C0.791241 8.56754 0.722497 8.53906 0.671812 8.48838C0.621126 8.43769 0.592651 8.36895 0.592651 8.29727V6.32592C0.592651 6.27938 0.604667 6.23363 0.627537 6.1931C0.650407 6.15257 0.683356 6.11863 0.723192 6.09456L9.85833 0.57943C9.90046 0.554018 9.94872 0.540588 9.99792 0.540588C10.0471 0.540588 10.0954 0.554018 10.1375 0.57943L19.2764 6.09456C19.3163 6.11863 19.3492 6.15257 19.3721 6.1931C19.395 6.23363 19.407 6.27938 19.407 6.32592V8.29727C19.407 8.3689 19.3785 8.4376 19.3279 8.48828C19.2773 8.53896 19.2086 8.56747 19.137 8.56754ZM1.13346 8.027H18.8667V6.47835L9.99833 1.12646L1.13346 6.47781V8.027Z" fill="#111111"/>
<path d="M10 6.57105C9.68032 6.57105 9.36779 6.47624 9.10196 6.29862C8.83613 6.121 8.62894 5.86854 8.50659 5.57316C8.38425 5.27779 8.35223 4.95277 8.41461 4.6392C8.47698 4.32563 8.63093 4.0376 8.857 3.81153C9.08307 3.58546 9.3711 3.43151 9.68467 3.36913C9.99824 3.30676 10.3233 3.33877 10.6186 3.46112C10.914 3.58347 11.1665 3.79066 11.3441 4.05649C11.5217 4.32232 11.6165 4.63485 11.6165 4.95456C11.616 5.38313 11.4455 5.794 11.1425 6.09704C10.8395 6.40008 10.4286 6.57055 10 6.57105ZM10 3.87834C9.78723 3.87834 9.57921 3.94145 9.40227 4.05967C9.22533 4.1779 9.08742 4.34594 9.00599 4.54254C8.92455 4.73915 8.90324 4.95548 8.94476 5.1642C8.98628 5.37291 9.08875 5.56463 9.23922 5.7151C9.3897 5.86557 9.58141 5.96805 9.79013 6.00956C9.99884 6.05108 10.2152 6.02977 10.4118 5.94834C10.6084 5.8669 10.7764 5.72899 10.8946 5.55205C11.0129 5.37512 11.076 5.16709 11.076 4.95429C11.0756 4.66904 10.9621 4.39558 10.7604 4.19388C10.5587 3.99218 10.2853 3.8787 10 3.87834ZM17.56 10.2748H14.6841C14.5293 10.2746 14.3809 10.213 14.2714 10.1035C14.162 9.99402 14.1004 9.84559 14.1003 9.69078V8.29726C14.1003 8.22558 14.1288 8.15684 14.1795 8.10615C14.2301 8.05547 14.2989 8.02699 14.3706 8.02699H17.8735C17.9452 8.02699 18.014 8.05547 18.0647 8.10615C18.1153 8.15684 18.1438 8.22558 18.1438 8.29726V9.69159C18.1435 9.84626 18.0818 9.99448 17.9724 10.1038C17.863 10.2131 17.7147 10.2746 17.56 10.2748ZM14.6411 8.56672V9.69078C14.6411 9.70227 14.6457 9.7133 14.6538 9.72145C14.6619 9.7296 14.6729 9.73422 14.6844 9.73429H17.56C17.5715 9.73422 17.5825 9.7296 17.5906 9.72145C17.5987 9.7133 17.6033 9.70227 17.6033 9.69078V8.56753L14.6411 8.56672Z" fill="#111111"/>
<path d="M17.3146 15.734H14.9292C14.8575 15.734 14.7888 15.7055 14.7381 15.6548C14.6874 15.6042 14.6589 15.5354 14.6589 15.4637V10.0043C14.6589 9.9326 14.6874 9.86386 14.7381 9.81317C14.7888 9.76248 14.8575 9.73401 14.9292 9.73401H17.3146C17.3863 9.73401 17.455 9.76248 17.5057 9.81317C17.5564 9.86386 17.5849 9.9326 17.5849 10.0043V15.4637C17.5849 15.5354 17.5564 15.6042 17.5057 15.6548C17.455 15.7055 17.3863 15.734 17.3146 15.734ZM15.1995 15.1935H17.0443V10.2745H15.1995V15.1935Z" fill="#111111"/>
<path d="M17.8735 17.4421H14.3706C14.2989 17.4421 14.2301 17.4136 14.1794 17.363C14.1288 17.3123 14.1003 17.2435 14.1003 17.1718V15.7775C14.1004 15.6227 14.162 15.4743 14.2714 15.3648C14.3809 15.2553 14.5293 15.1937 14.6841 15.1935H17.56C17.7148 15.1937 17.8632 15.2553 17.9727 15.3648C18.0821 15.4743 18.1437 15.6227 18.1438 15.7775V17.1718C18.1438 17.2435 18.1153 17.3123 18.0646 17.363C18.014 17.4136 17.9452 17.4421 17.8735 17.4421ZM14.6408 16.9016H17.6033V15.7775C17.6033 15.766 17.5987 15.755 17.5906 15.7468C17.5825 15.7387 17.5715 15.7341 17.56 15.734H14.6841C14.6726 15.7341 14.6616 15.7387 14.6535 15.7468C14.6454 15.755 14.6408 15.766 14.6408 15.7775V16.9016ZM11.4379 10.2748H8.56218C8.40737 10.2746 8.25896 10.213 8.14952 10.1035C8.04008 9.994 7.97854 9.84557 7.97839 9.69076V8.29725C7.97839 8.22557 8.00687 8.15682 8.05755 8.10614C8.10824 8.05545 8.17698 8.02698 8.24866 8.02698H11.7514C11.823 8.02698 11.8918 8.05545 11.9425 8.10614C11.9932 8.15682 12.0216 8.22557 12.0216 8.29725V9.69157C12.0213 9.84624 11.9596 9.99447 11.8502 10.1038C11.7408 10.2131 11.5925 10.2746 11.4379 10.2748ZM8.51893 8.56752V9.69157C8.51893 9.70307 8.52348 9.71409 8.53158 9.72225C8.53968 9.7304 8.55068 9.73501 8.56218 9.73509H11.4379C11.4493 9.73501 11.4603 9.7304 11.4684 9.72225C11.4765 9.71409 11.4811 9.70307 11.4811 9.69157V8.56752H8.51893Z" fill="#111111"/>
<path d="M11.1892 15.734H8.8108C8.73912 15.734 8.67037 15.7055 8.61969 15.6548C8.569 15.6042 8.54053 15.5354 8.54053 15.4637V10.0043C8.54053 9.9326 8.569 9.86386 8.61969 9.81317C8.67037 9.76248 8.73912 9.73401 8.8108 9.73401H11.1892C11.2609 9.73401 11.3296 9.76248 11.3803 9.81317C11.431 9.86386 11.4594 9.9326 11.4594 10.0043V15.4637C11.4594 15.5354 11.431 15.6042 11.3803 15.6548C11.3296 15.7055 11.2609 15.734 11.1892 15.734ZM9.08107 15.1935H10.9189V10.2745H9.08107V15.1935Z" fill="#111111"/>
<path d="M11.7513 17.4421H8.24863C8.17695 17.4421 8.1082 17.4136 8.05752 17.363C8.00683 17.3123 7.97836 17.2435 7.97836 17.1718V15.7775C7.9785 15.6227 8.04004 15.4743 8.14948 15.3648C8.25893 15.2553 8.40733 15.1937 8.56214 15.1935H11.4378C11.5926 15.1937 11.741 15.2553 11.8505 15.3648C11.9599 15.4743 12.0215 15.6227 12.0216 15.7775V17.1718C12.0216 17.2435 11.9931 17.3123 11.9424 17.363C11.8918 17.4136 11.823 17.4421 11.7513 17.4421ZM8.51863 16.9016H11.4811V15.7775C11.4811 15.766 11.4765 15.755 11.4684 15.7468C11.4603 15.7387 11.4493 15.7341 11.4378 15.734H8.56214C8.55065 15.7341 8.53965 15.7387 8.53155 15.7468C8.52344 15.755 8.5189 15.766 8.5189 15.7775L8.51863 16.9016ZM5.58619 10.2748H2.71025C2.55544 10.2746 2.40703 10.213 2.29759 10.1035C2.18815 9.994 2.12661 9.84557 2.12646 9.69076V8.29725C2.12646 8.22557 2.15494 8.15682 2.20563 8.10614C2.25631 8.05545 2.32505 8.02698 2.39674 8.02698H5.89971C5.97139 8.02698 6.04013 8.05545 6.09082 8.10614C6.1415 8.15682 6.16998 8.22557 6.16998 8.29725V9.69157C6.16962 9.84624 6.10798 9.99447 5.99856 10.1038C5.88915 10.2131 5.74086 10.2746 5.58619 10.2748ZM2.66701 8.56752V9.69157C2.66701 9.70307 2.67155 9.71409 2.67965 9.72225C2.68776 9.7304 2.69875 9.73501 2.71025 9.73509H5.58619C5.59769 9.73501 5.60869 9.7304 5.61679 9.72225C5.62489 9.71409 5.62944 9.70307 5.62944 9.69157V8.56752H2.66701Z" fill="#111111"/>
<path d="M5.35133 15.734H2.94593C2.87425 15.734 2.80551 15.7055 2.75482 15.6548C2.70413 15.6042 2.67566 15.5354 2.67566 15.4637V10.0043C2.67566 9.9326 2.70413 9.86386 2.75482 9.81317C2.80551 9.76248 2.87425 9.73401 2.94593 9.73401H5.35133C5.42301 9.73401 5.49176 9.76248 5.54244 9.81317C5.59313 9.86386 5.6216 9.9326 5.6216 10.0043V15.4637C5.6216 15.5354 5.59313 15.6042 5.54244 15.6548C5.49176 15.7055 5.42301 15.734 5.35133 15.734ZM3.2162 15.1935H5.08106V10.2745H3.2162V15.1935Z" fill="#111111"/>
<path d="M5.89971 17.4421H2.39674C2.32505 17.4421 2.25631 17.4137 2.20563 17.363C2.15494 17.3123 2.12646 17.2435 2.12646 17.1719V15.7775C2.12661 15.6227 2.18815 15.4743 2.29759 15.3648C2.40703 15.2553 2.55544 15.1937 2.71025 15.1935H5.58619C5.741 15.1937 5.88941 15.2553 5.99885 15.3648C6.10829 15.4743 6.16984 15.6227 6.16998 15.7775V17.1719C6.16998 17.2435 6.1415 17.3123 6.09082 17.363C6.04013 17.4137 5.97139 17.4421 5.89971 17.4421ZM2.66701 16.9016H5.62944V15.7775C5.62944 15.766 5.62489 15.755 5.61679 15.7469C5.60869 15.7387 5.59769 15.7341 5.58619 15.734H2.71025C2.69876 15.7341 2.68776 15.7387 2.67965 15.7469C2.67155 15.755 2.66701 15.766 2.66701 15.7775V16.9016Z" fill="#111111"/>
<path d="M19.1892 19.4594H0.810798C0.739117 19.4594 0.670373 19.431 0.619688 19.3803C0.569002 19.3296 0.540527 19.2609 0.540527 19.1892V17.1719C0.540527 17.1002 0.569002 17.0315 0.619688 16.9808C0.670373 16.9301 0.739117 16.9016 0.810798 16.9016H19.1892C19.2609 16.9016 19.3296 16.9301 19.3803 16.9808C19.431 17.0315 19.4594 17.1002 19.4594 17.1719V19.1892C19.4594 19.2609 19.431 19.3296 19.3803 19.3803C19.3296 19.431 19.2609 19.4594 19.1892 19.4594ZM1.08107 18.9189H18.9189V17.4422H1.08107V18.9189Z" fill="#111111"/>
</g>
<defs>
<clipPath id="clip0_4001_546">
<rect width="20" height="20" fill="white"/>
</clipPath>
</defs>
</svg>
