<svg width="80" height="80" viewBox="0 0 80 80" fill="none" xmlns="http://www.w3.org/2000/svg">
<g clip-path="url(#clip0_4001_408)">
<path d="M43.636 77.4159C44.2911 76.7608 44.739 75.9537 44.9487 75.0747C45.6738 75.4681 46.4858 75.674 47.3108 75.6738C48.5774 75.6738 49.844 75.1916 50.8082 74.2273C51.5919 73.4436 52.079 72.4428 52.2158 71.3608C52.1876 71.5877 53.723 71.5477 53.8766 71.5461C54.9669 71.5347 56.2086 71.1953 56.963 70.3634C57.3833 69.9 57.6547 69.3267 57.8972 68.7562C57.9697 68.5858 58.5821 66.9644 58.433 66.9356C58.7429 66.9956 59.0605 67.0267 59.3832 67.0267C60.7044 67.0267 61.9465 66.5122 62.8805 65.578C64.809 63.6495 64.809 60.5117 62.8805 58.5833L62.4896 58.1923C63.8187 56.4812 64.4193 54.2734 64.1068 52.108C64.0507 51.7131 64.087 51.3106 64.2128 50.9322C64.3387 50.5537 64.5507 50.2096 64.8321 49.927L67.2405 47.5184L68.7683 49.0462C69.253 49.5309 69.8974 49.7978 70.5827 49.7978C71.268 49.7978 71.9124 49.5309 72.3971 49.0462L78.9383 42.5052C79.9387 41.5047 79.9387 39.8769 78.9382 38.8764L61.7019 21.6406C61.2174 21.1559 60.5729 20.8891 59.8876 20.8891C59.2022 20.8891 58.5579 21.1559 58.0732 21.6406L51.5321 28.1817C50.5318 29.182 50.5316 30.81 51.5321 31.8105L53.0599 33.3383L51.6651 34.733C51.3596 35.04 50.9811 35.2643 50.5651 35.3848C50.1492 35.5053 49.7094 35.5181 49.2871 35.4219L45.3568 34.537C42.9422 33.9934 40.4782 34.3345 38.3585 35.4437C36.594 34.8064 34.7046 34.6645 32.8515 35.0386L30.6963 35.4734C30.2815 35.5577 29.8523 35.5378 29.4471 35.4155C29.0419 35.2932 28.6734 35.0723 28.3744 34.7727L26.9402 33.3384L28.468 31.8106C29.4683 30.8102 29.4683 29.1823 28.4679 28.182L21.9271 21.6406C21.4426 21.1559 20.798 20.8891 20.1127 20.8891C19.4274 20.8891 18.783 21.1559 18.2983 21.6406L1.06224 38.8766C0.0617724 39.877 0.0617724 41.505 1.06224 42.5053L7.60318 49.0462C7.84089 49.2853 8.12365 49.4748 8.43508 49.6038C8.74652 49.7328 9.08046 49.7987 9.41755 49.7978C10.103 49.7978 10.7474 49.5309 11.2319 49.0462L12.7597 47.5184L15.1683 49.9272C15.4497 50.2098 15.6617 50.5538 15.7875 50.9322C15.9134 51.3107 15.9496 51.7131 15.8935 52.108C15.7372 53.1897 15.7055 54.0428 15.9754 55.0245L13.454 57.5458C11.6019 59.3978 11.6019 62.4112 13.454 64.2631C14.0864 64.8966 14.886 65.3373 15.7594 65.5336C15.0247 67.2641 15.3607 69.3447 16.7696 70.7534C17.6668 71.6506 18.8594 72.1447 20.1282 72.1447C20.5524 72.1447 20.9679 72.0883 21.3669 71.9811C21.5166 72.9834 21.9847 73.9111 22.7019 74.627C23.6279 75.553 24.8443 76.0161 26.0607 76.0161C26.436 76.0161 26.8111 75.9717 27.178 75.8836C27.3139 76.9162 27.7872 77.8749 28.5243 78.6108C29.4502 79.5367 30.6666 79.9998 31.8829 79.9998C33.0993 79.9998 34.3157 79.5369 35.2416 78.6108L36.5388 77.3136L36.641 77.4158C37.5752 78.35 38.8172 78.8645 40.1383 78.8645C41.4599 78.8647 42.7019 78.3502 43.636 77.4159ZM59.8876 23.4548L77.1237 40.6909L70.5826 47.2319L53.3465 29.9959L59.8876 23.4548ZM44.7932 37.04L48.7233 37.9248C50.4499 38.3137 52.2279 37.7987 53.4794 36.547L54.8741 35.1523L65.4258 45.7039L63.0174 48.1123C61.8791 49.2503 61.3368 50.8811 61.5668 52.4744C61.7641 53.8416 61.4263 55.2334 60.6547 56.3577L45.4174 41.1203C45.1945 40.8975 44.8974 40.7645 44.5828 40.7466C44.2681 40.7288 43.9579 40.8274 43.7113 41.0236L39.3799 44.4708C39.1662 44.6408 39.0124 44.8747 38.9408 45.1382C38.8691 45.4018 38.8835 45.6813 38.9818 45.9361L39.3265 46.83C39.6959 47.7836 39.6988 48.8402 39.3346 49.7958C38.9705 50.7514 38.2652 51.5381 37.3549 52.0041L37.0649 52.1531L33.5068 45.1336C33.3228 44.7718 33.2581 44.3611 33.322 43.9603C33.3859 43.5595 33.5751 43.1892 33.8626 42.9027L37.6591 39.1062C39.5365 37.2295 42.2033 36.457 44.7932 37.04ZM9.41771 47.2319L2.87662 40.6909L20.1126 23.455L26.6546 29.995L9.41771 47.2319ZM15.2685 59.3603L18.6943 55.9345C19.1068 55.522 19.6552 55.2948 20.2385 55.2948C20.8218 55.2948 21.3704 55.522 21.7827 55.9345C22.6343 56.7861 22.6343 58.1717 21.7827 59.0231L18.3569 62.4489C17.5052 63.3006 16.1197 63.3005 15.2683 62.4489C14.4169 61.5973 14.4169 60.2119 15.2685 59.3603ZM18.5841 68.9392C18.3807 68.7369 18.2194 68.4962 18.1096 68.2312C17.9998 67.9661 17.9437 67.6819 17.9444 67.395C17.9444 66.8116 18.1716 66.2631 18.5841 65.8506L24.5166 59.9181C24.7193 59.7152 24.9601 59.5543 25.2251 59.4447C25.4901 59.3351 25.7742 59.279 26.061 59.2795C26.6202 59.2795 27.1794 59.4923 27.6052 59.9181C28.4568 60.7697 28.4568 62.1553 27.6052 63.0067L21.6727 68.9392C21.2602 69.3517 20.7118 69.5789 20.1285 69.5789C19.5452 69.5789 18.9966 69.3517 18.5841 68.9392ZM24.5166 72.8128C24.1041 72.4003 23.8769 71.8519 23.8769 71.2686C23.8769 70.6853 24.1041 70.1367 24.5166 69.7244L27.8874 66.3536C28.0901 66.1507 28.3308 65.9898 28.5959 65.8802C28.8609 65.7706 29.145 65.7145 29.4318 65.715C29.991 65.715 30.5502 65.9278 30.976 66.3536C31.8276 67.2052 31.8276 68.5908 30.976 69.4422L30.0585 70.3597L27.6052 72.813C27.4029 73.0164 27.1622 73.1777 26.8972 73.2875C26.6321 73.3973 26.3479 73.4534 26.061 73.4527C25.7741 73.4534 25.4898 73.3972 25.2247 73.2874C24.9596 73.1776 24.719 73.0163 24.5166 72.8128ZM34.9597 75.2644L33.4276 76.7966C32.5758 77.6483 31.1904 77.6481 30.339 76.7966C29.4877 75.9453 29.4876 74.5605 30.3382 73.7089L31.8722 72.175C32.0749 71.9724 32.3155 71.8117 32.5803 71.7022C32.8451 71.5928 33.129 71.5367 33.4155 71.5372C33.9749 71.5372 34.5341 71.75 34.9599 72.1758C35.8113 73.0272 35.8113 74.4128 34.9597 75.2644ZM37.9579 75.1037C38.4496 73.4797 38.0555 71.6427 36.7741 70.3613C36.0383 69.6242 35.0795 69.1509 34.0469 69.0152C34.4208 67.4597 34.0022 65.7508 32.7905 64.5391C32.151 63.8985 31.3407 63.4554 30.4563 63.2625C31.1571 61.5445 30.8118 59.4961 29.4196 58.1039C28.2079 56.8922 26.499 56.4738 24.9435 56.8477C24.8076 55.815 24.3343 54.8562 23.5972 54.1203C22.7001 53.2231 21.5074 52.7291 20.2386 52.7291C19.5804 52.7291 18.943 52.8633 18.3563 53.1166C18.3726 52.9244 18.3988 52.7142 18.4333 52.475C18.6633 50.8817 18.1211 49.2511 16.983 48.113L14.5744 45.7044L25.1262 35.1528L26.5604 36.587C27.1582 37.1863 27.8953 37.628 28.7057 37.8727C29.5161 38.1173 30.3745 38.1572 31.2041 37.9887L33.3593 37.5539C34.1264 37.3998 34.9127 37.3639 35.6907 37.4473L32.0487 41.0892C31.378 41.7579 30.9365 42.6218 30.7873 43.557C30.6382 44.4922 30.7892 45.4506 31.2187 46.2947L34.7768 53.3142C34.9289 53.6164 35.1396 53.8853 35.3967 54.1052C35.6538 54.3251 35.952 54.4916 36.2741 54.595C36.5957 54.7003 36.9349 54.7405 37.2722 54.7132C37.6094 54.686 37.9379 54.5919 38.2383 54.4364L38.5283 54.2873C40.0025 53.5327 41.1448 52.2586 41.7344 50.711C42.3241 49.1634 42.3194 47.4522 41.7212 45.908L41.7154 45.8928L44.4135 43.7453L61.0665 60.3983C61.9944 61.3262 61.9944 62.8363 61.0665 63.7642C60.2637 64.567 59.0163 64.6631 58.071 64.0558C57.3558 63.5964 54.8776 60.9542 54.2291 60.3097L50.5966 56.6994L50.399 56.503C49.8965 56.0034 49.0841 56.0059 48.5846 56.5086C48.0851 57.0112 48.0876 57.8234 48.5902 58.323L55.1908 64.8833C55.4126 65.1038 55.5884 65.3661 55.708 65.655C55.8277 65.9439 55.8889 66.2537 55.888 66.5664C55.888 67.2456 55.5132 67.8719 55.1043 68.3883C54.2947 69.4103 52.6535 69.078 51.8285 68.253L44.6321 60.9998C44.3911 60.7645 44.0673 60.6333 43.7305 60.6346C43.3937 60.6359 43.0709 60.7696 42.8318 61.0068C42.5927 61.2441 42.4564 61.5658 42.4525 61.9026C42.4485 62.2394 42.5771 62.5642 42.8105 62.807L48.9121 68.9567C48.9379 68.988 48.9651 69.0184 48.9943 69.0477C49.4438 69.4972 49.6915 70.0948 49.6915 70.7306C49.6915 71.3664 49.4438 71.9641 48.9943 72.4136C48.0663 73.3416 46.5563 73.3416 45.6283 72.4136L39.2566 66.0419C39.0147 65.8077 38.6904 65.6779 38.3537 65.6807C38.017 65.6834 37.6949 65.8184 37.4568 66.0564C37.2187 66.2945 37.0838 66.6167 37.081 66.9534C37.0783 67.2901 37.208 67.6143 37.4422 67.8562L41.8222 72.2363C42.7502 73.1642 42.7502 74.6742 41.8222 75.6022C41.3727 76.0517 40.7751 76.2994 40.1393 76.2994C39.5035 76.2994 38.9058 76.0517 38.4563 75.6022L37.9579 75.1037Z" fill="#3B16A1"/>
<path d="M40.8341 20.5273V1.28297C40.8341 0.574375 40.2597 0 39.5511 0C38.8425 0 38.2681 0.574375 38.2681 1.28297V20.5273C38.2681 21.2359 38.8425 21.8103 39.5511 21.8103C40.2597 21.8103 40.8341 21.2359 40.8341 20.5273ZM32.5499 24.3213C32.8003 24.5717 33.1288 24.697 33.4571 24.697C33.7853 24.697 34.1138 24.5717 34.3642 24.3213C34.4834 24.2021 34.5779 24.0607 34.6424 23.905C34.7069 23.7494 34.7401 23.5826 34.7401 23.4141C34.7401 23.2456 34.7069 23.0787 34.6424 22.9231C34.5779 22.7674 34.4834 22.626 34.3642 22.5069L22.1761 10.3188C21.9342 10.0845 21.6099 9.95482 21.2732 9.95754C20.9365 9.96027 20.6144 10.0952 20.3763 10.3333C20.1382 10.5714 20.0033 10.8935 20.0005 11.2302C19.9978 11.5669 20.1275 11.8912 20.3617 12.1331L32.5499 24.3213ZM46.5524 24.3213L58.7405 12.1331C58.9747 11.8912 59.1044 11.5669 59.1017 11.2302C59.099 10.8935 58.964 10.5714 58.7259 10.3333C58.4878 10.0952 58.1657 9.96027 57.829 9.95754C57.4923 9.95482 57.168 10.0845 56.9261 10.3188L44.738 22.5069C44.6188 22.626 44.5243 22.7674 44.4598 22.9231C44.3954 23.0787 44.3622 23.2456 44.3622 23.4141C44.3622 23.5826 44.3954 23.7494 44.4598 23.905C44.5243 24.0607 44.6188 24.2021 44.738 24.3213C44.857 24.4406 44.9984 24.5352 45.1541 24.5997C45.3098 24.6642 45.4767 24.6973 45.6452 24.697C45.8137 24.6972 45.9806 24.6641 46.1363 24.5997C46.2919 24.5352 46.4334 24.4406 46.5524 24.3213Z" fill="#3B16A1"/>
</g>
<defs>
<clipPath id="clip0_4001_408">
<rect width="80" height="80" fill="white"/>
</clipPath>
</defs>
</svg>
