<svg width="40" height="40" viewBox="0 0 40 40" fill="none" xmlns="http://www.w3.org/2000/svg">
<g clip-path="url(#clip0_4001_513)">
<path d="M37.1998 18.0753L36.164 13.9319C36.4472 13.8718 36.6597 13.6205 36.6597 13.3195V12.6514C36.6597 11.201 35.4796 10.021 34.0292 10.021H29.3111V8.64301C29.3111 7.92926 28.7305 7.34863 28.0167 7.34863H3.96656C3.25281 7.34863 2.67219 7.92926 2.67219 8.64301V20C2.67219 20.1662 2.73818 20.3255 2.85563 20.4429C2.97309 20.5604 3.1324 20.6264 3.29852 20.6264C3.46463 20.6264 3.62394 20.5604 3.7414 20.4429C3.85886 20.3255 3.92484 20.1662 3.92484 20V8.64301C3.92484 8.61996 3.94352 8.60129 3.96656 8.60129H28.0166C28.0397 8.60129 28.0584 8.61996 28.0584 8.64301V20.0002C28.0584 20.1663 28.1243 20.3256 28.2418 20.4431C28.3593 20.5605 28.5186 20.6265 28.6847 20.6265C28.8508 20.6265 29.0101 20.5605 29.1276 20.4431C29.245 20.3256 29.311 20.1663 29.311 20.0002V19.2902H36.6992L36.7009 19.2904L36.7026 19.2903C37.6117 19.2909 38.3837 19.8876 38.6488 20.7099H36.7013C36.5352 20.7099 36.3759 20.7759 36.2584 20.8933C36.141 21.0108 36.075 21.1701 36.075 21.3362V22.6723C36.075 23.7544 36.9553 24.6347 38.0374 24.6347H38.7473V27.3904H37.1096C36.5716 25.8371 35.095 24.7182 33.361 24.7182C31.627 24.7182 30.1503 25.8371 29.6124 27.3904H29.3109V22.6722C29.3109 22.5061 29.2449 22.3468 29.1274 22.2293C29.01 22.1119 28.8506 22.0459 28.6845 22.0459C28.5184 22.0459 28.3591 22.1119 28.2417 22.2293C28.1242 22.3468 28.0582 22.5061 28.0582 22.6722V27.3903H15.0638C14.5259 25.8369 13.0492 24.718 11.3152 24.718C9.58125 24.718 8.10453 25.8369 7.56664 27.3903H3.96656C3.9555 27.3903 3.94489 27.3859 3.93706 27.3781C3.92924 27.3702 3.92484 27.3596 3.92484 27.3486V25.9707H6.63883C6.80494 25.9707 6.96425 25.9047 7.08171 25.7872C7.19917 25.6698 7.26516 25.5105 7.26516 25.3443C7.26516 25.1782 7.19917 25.0189 7.08171 24.9015C6.96425 24.784 6.80494 24.718 6.63883 24.718H0.626328C0.460216 24.718 0.300907 24.784 0.183447 24.9015C0.065988 25.0189 0 25.1782 0 25.3443C0 25.5105 0.065988 25.6698 0.183447 25.7872C0.300907 25.9047 0.460216 25.9707 0.626328 25.9707H2.67227V27.3486C2.67227 28.0623 3.25289 28.6429 3.96664 28.6429H7.34977C7.34961 28.6568 7.34867 28.6707 7.34867 28.6847C7.34867 30.8718 9.12813 32.6512 11.3152 32.6512C13.5023 32.6512 15.2818 30.8718 15.2818 28.6847C15.2818 28.6706 15.2809 28.6568 15.2807 28.6429H29.3955C29.3954 28.6568 29.3945 28.6707 29.3945 28.6847C29.3945 30.8718 31.1739 32.6512 33.361 32.6512C35.5481 32.6512 37.3276 30.8718 37.3276 28.6847C37.3276 28.6706 37.3266 28.6568 37.3265 28.6429H39.3736C39.5397 28.6429 39.699 28.5769 39.8165 28.4595C39.9339 28.342 39.9999 28.1827 39.9999 28.0166V21.3361C40 19.6867 38.783 18.3163 37.1998 18.0753ZM29.3111 11.2736H34.0292C34.789 11.2736 35.4071 11.8917 35.4071 12.6514V12.6932H29.3111V11.2736ZM29.3111 18.0376V13.9457H34.8763L35.8993 18.0376H29.3111ZM11.3152 31.3988C9.81875 31.3988 8.60125 30.1814 8.60125 28.6848C8.60125 27.1882 9.81875 25.9708 11.3152 25.9708C12.8117 25.9708 14.0292 27.1882 14.0292 28.6848C14.0292 30.1814 12.8117 31.3988 11.3152 31.3988ZM33.3612 31.3988C31.8647 31.3988 30.6472 30.1814 30.6472 28.6848C30.6472 27.1882 31.8647 25.9708 33.3612 25.9708C34.8577 25.9708 36.0752 27.1882 36.0752 28.6848C36.0752 30.1814 34.8577 31.3988 33.3612 31.3988ZM38.7474 23.3821H38.0376C37.6462 23.3821 37.3277 23.0636 37.3277 22.6722V21.9624H38.7473V23.3821H38.7474Z" fill="#3B16A1"/>
<path d="M11.3152 27.3904C10.6015 27.3904 10.0208 27.9711 10.0208 28.6848C10.0208 29.3986 10.6015 29.9792 11.3152 29.9792C12.029 29.9792 12.6096 29.3986 12.6096 28.6848C12.6096 27.9711 12.029 27.3904 11.3152 27.3904ZM33.3611 27.3904C32.6474 27.3904 32.0668 27.9711 32.0668 28.6848C32.0668 29.3986 32.6474 29.9792 33.3611 29.9792C34.0749 29.9792 34.6555 29.3986 34.6555 28.6848C34.6555 27.9711 34.0749 27.3904 33.3611 27.3904ZM26.0125 24.7183H16.6597C16.4935 24.7183 16.3342 24.7842 16.2168 24.9017C16.0993 25.0192 16.0333 25.1785 16.0333 25.3446C16.0333 25.5107 16.0993 25.67 16.2168 25.7875C16.3342 25.9049 16.4935 25.9709 16.6597 25.9709H26.0125C26.1786 25.9709 26.3379 25.9049 26.4553 25.7875C26.5728 25.67 26.6388 25.5107 26.6388 25.3446C26.6388 25.1785 26.5728 25.0192 26.4553 24.9017C26.3379 24.7842 26.1786 24.7183 26.0125 24.7183ZM9.97911 22.046H1.96239C1.79628 22.046 1.63697 22.112 1.51951 22.2294C1.40205 22.3469 1.33606 22.5062 1.33606 22.6723C1.33606 22.8384 1.40205 22.9977 1.51951 23.1152C1.63697 23.2327 1.79628 23.2986 1.96239 23.2986H9.97911C10.1452 23.2986 10.3045 23.2327 10.422 23.1152C10.5394 22.9977 10.6054 22.8384 10.6054 22.6723C10.6054 22.5062 10.5394 22.3469 10.422 22.2294C10.3045 22.112 10.1452 22.046 9.97911 22.046ZM21.7789 13.5446C21.6615 13.4272 21.5022 13.3612 21.3361 13.3612C21.17 13.3612 21.0107 13.4272 20.8932 13.5447L15.3236 19.1143L12.4261 16.2169C12.368 16.1587 12.2989 16.1126 12.223 16.0811C12.147 16.0496 12.0655 16.0334 11.9833 16.0334C11.901 16.0334 11.8196 16.0496 11.7436 16.0811C11.6676 16.1126 11.5986 16.1587 11.5404 16.2169C11.4823 16.275 11.4361 16.344 11.4047 16.42C11.3732 16.496 11.357 16.5775 11.357 16.6597C11.357 16.7419 11.3732 16.8234 11.4047 16.8994C11.4361 16.9754 11.4823 17.0444 11.5404 17.1026L14.8807 20.4429C15.003 20.5652 15.1633 20.6263 15.3236 20.6263C15.4838 20.6263 15.6442 20.5652 15.7664 20.4429L21.7789 14.4304C21.8963 14.3129 21.9623 14.1536 21.9623 13.9875C21.9624 13.8214 21.8964 13.6621 21.7789 13.5446Z" fill="#3B16A1"/>
</g>
<defs>
<clipPath id="clip0_4001_513">
<rect width="40" height="40" fill="white"/>
</clipPath>
</defs>
</svg>
