<svg width="14" height="15" viewBox="0 0 14 15" fill="none" xmlns="http://www.w3.org/2000/svg">
<path d="M1.75 5.16667L4.92912 7.28608C5.67755 7.78504 6.05177 8.03452 6.45624 8.13145C6.81369 8.2171 7.18631 8.2171 7.54376 8.13145C7.94823 8.03452 8.32245 7.78504 9.07088 7.28608L12.25 5.16667M3.61667 11.5833H10.3833C11.0367 11.5833 11.3634 11.5833 11.613 11.4562C11.8325 11.3443 12.011 11.1659 12.1228 10.9463C12.25 10.6968 12.25 10.3701 12.25 9.71667V5.28334C12.25 4.62994 12.25 4.30325 12.1228 4.05368C12.011 3.83416 11.8325 3.65568 11.613 3.54383C11.3634 3.41667 11.0367 3.41667 10.3833 3.41667H3.61667C2.96327 3.41667 2.63657 3.41667 2.38701 3.54383C2.16749 3.65568 1.98901 3.83416 1.87716 4.05368C1.75 4.30325 1.75 4.62994 1.75 5.28334V9.71667C1.75 10.3701 1.75 10.6968 1.87716 10.9463C1.98901 11.1659 2.16749 11.3443 2.38701 11.4562C2.63657 11.5833 2.96327 11.5833 3.61667 11.5833Z" stroke="#111111" stroke-linecap="round" stroke-linejoin="round"/>
</svg>
