<svg width="40" height="40" viewBox="0 0 40 40" fill="none" xmlns="http://www.w3.org/2000/svg">
<g clip-path="url(#clip0_4001_469)">
<path d="M39.9439 22.2644L39.9437 22.2639L32.3915 3.30111C32.3534 3.20529 32.2968 3.11793 32.2249 3.04399C32.153 2.97006 32.0673 2.91101 31.9726 2.87021C31.8778 2.82942 31.776 2.80768 31.6729 2.80623C31.5698 2.80478 31.4674 2.82366 31.3716 2.86178L31.3707 2.86218L0.732602 15.062C0.607667 15.116 0.499288 15.2021 0.418517 15.3117C0.293479 15.3766 0.188468 15.4744 0.114741 15.5944C0.0410141 15.7145 0.00134997 15.8524 0 15.9933L0 36.4087C0 36.617 0.0827273 36.8167 0.229983 36.964C0.377238 37.1112 0.57696 37.1939 0.785211 37.1939H33.7641C33.9723 37.1939 34.172 37.1112 34.3193 36.964C34.4665 36.8167 34.5493 36.617 34.5493 36.4087V25.2587L39.5055 23.2847C39.6013 23.2465 39.6886 23.1898 39.7625 23.1179C39.8363 23.0459 39.8953 22.9601 39.936 22.8654C39.9767 22.7706 39.9983 22.6688 39.9997 22.5657C40.001 22.4626 39.9821 22.3602 39.9439 22.2644ZM32.9788 35.6235H1.57042V16.7785H32.9788V35.6235ZM13.1012 15.212L26.2488 9.97304C26.8295 10.5834 27.5277 11.07 28.3013 11.4036C29.0749 11.7371 29.908 11.9108 30.7504 11.9141L32.0617 15.212H13.1012ZM34.5493 23.5721V15.9933C34.5493 15.785 34.4665 15.5853 34.3193 15.438C34.172 15.2908 33.9723 15.208 33.7641 15.208H33.7515L32.0876 11.0292C32.0692 10.9943 32.0477 10.9612 32.0232 10.9302C31.9825 10.7473 31.877 10.5854 31.7262 10.4743C31.5754 10.3631 31.3894 10.3103 31.2027 10.3256C30.4231 10.3967 29.6381 10.2717 28.919 9.96206C28.2 9.6524 27.5699 9.16789 27.0858 8.5526C26.9675 8.40655 26.8003 8.30828 26.6151 8.27595C26.4299 8.24362 26.2393 8.27941 26.0784 8.37671C26.0411 8.38115 26.0041 8.38797 25.9677 8.39713L9.91642 14.7887C9.82028 14.8264 9.73262 14.8829 9.6586 14.9549C9.58457 15.0269 9.52567 15.113 9.48534 15.208H4.61076L31.2231 4.61163L38.195 22.1179L34.5493 23.5721Z" fill="#3B16A1"/>
<path d="M3.70151 30.3226C4.45184 30.5443 5.13485 30.9501 5.68845 31.503C6.24205 32.056 6.64869 32.7385 6.87141 33.4885C6.91975 33.6505 7.01906 33.7925 7.15459 33.8935C7.29011 33.9945 7.45461 34.0491 7.62364 34.0492C7.66438 34.0466 7.70484 34.0405 7.74456 34.0311C7.7798 34.0411 7.81582 34.0485 7.85213 34.0531H26.6972C26.7296 34.0489 26.7616 34.0423 26.793 34.0335C26.9814 34.0793 27.1802 34.0484 27.3459 33.9476C27.5115 33.8468 27.6303 33.6844 27.6762 33.496L27.6771 33.4917C27.8993 32.7409 28.3056 32.0575 28.8593 31.5039C29.4129 30.9503 30.0962 30.5439 30.847 30.3218C31.0259 30.267 31.179 30.1495 31.278 29.9907C31.377 29.832 31.4153 29.6428 31.3857 29.458C31.3962 29.4199 31.4038 29.3811 31.4085 29.3418V23.0601C31.4039 23.0208 31.396 22.9819 31.3849 22.9439C31.4147 22.7592 31.3765 22.5699 31.2775 22.4111C31.1785 22.2523 31.0253 22.1347 30.8462 22.0802C30.0955 21.8581 29.4122 21.4517 28.8588 20.8979C28.3054 20.344 27.8994 19.6605 27.6779 18.9095C27.623 18.7295 27.5044 18.5755 27.3443 18.4764C27.1842 18.3773 26.9936 18.3398 26.8079 18.3709C26.7716 18.3608 26.7346 18.3534 26.6972 18.3489H7.85213C7.81256 18.3536 7.77344 18.3615 7.73514 18.3724C7.55042 18.343 7.36129 18.3813 7.20257 18.4803C7.04386 18.5793 6.92625 18.7323 6.87141 18.9111C6.64916 19.6617 6.24272 20.3449 5.68909 20.8984C5.13546 21.4519 4.45221 21.8581 3.70151 22.0802C3.5226 22.1349 3.36952 22.2525 3.27052 22.4112C3.17152 22.57 3.13328 22.7592 3.16285 22.9439C3.15264 22.9821 3.14529 23.0209 3.14087 23.0601V29.3418C3.14538 29.3787 3.15275 29.4152 3.16285 29.451C3.13172 29.6369 3.16918 29.8277 3.26827 29.9881C3.36736 30.1484 3.52132 30.2673 3.70151 30.3226ZM4.71129 23.3789C5.49156 23.0656 6.20033 22.5975 6.7949 22.0029C7.38947 21.4083 7.85754 20.6996 8.17093 19.9193H26.3776C26.6912 20.6996 27.1594 21.4084 27.7541 22.0029C28.3488 22.5975 29.0577 23.0656 29.838 23.3789V29.023C29.058 29.3368 28.3494 29.805 27.7549 30.3995C27.1603 30.994 26.6921 31.7026 26.3784 32.4827H8.17093C7.85718 31.7026 7.38898 30.994 6.79446 30.3995C6.19993 29.805 5.49135 29.3368 4.71129 29.023V23.3789Z" fill="#3B16A1"/>
<path d="M17.2746 30.9123C19.8766 30.9123 21.9859 28.803 21.9859 26.201C21.9859 23.599 19.8766 21.4897 17.2746 21.4897C14.6726 21.4897 12.5633 23.599 12.5633 26.201C12.5659 28.8019 14.6737 30.9097 17.2746 30.9123ZM17.2746 23.0602C19.0092 23.0602 20.4154 24.4664 20.4154 26.201C20.4154 27.9356 19.0092 29.3419 17.2746 29.3419C15.54 29.3419 14.1338 27.9356 14.1338 26.201C14.1338 24.4664 15.54 23.0602 17.2746 23.0602ZM8.63729 27.3788C9.28774 27.3788 9.8151 26.8515 9.8151 26.201C9.8151 25.5506 9.28774 25.0232 8.63729 25.0232C7.98684 25.0232 7.45947 25.5506 7.45947 26.201C7.45947 26.8516 7.98684 27.3788 8.63729 27.3788ZM8.63729 25.8084C8.74141 25.8084 8.84127 25.8498 8.9149 25.9234C8.98853 25.997 9.02989 26.0969 9.02989 26.201C9.02989 26.3051 8.98853 26.405 8.9149 26.4786C8.84127 26.5523 8.74141 26.5936 8.63729 26.5936C8.53316 26.5936 8.4333 26.5523 8.35967 26.4786C8.28605 26.405 8.24468 26.3051 8.24468 26.201C8.24468 26.0969 8.28605 25.997 8.35967 25.9234C8.4333 25.8498 8.53316 25.8084 8.63729 25.8084ZM25.9119 27.3788C26.5624 27.3788 27.0897 26.8515 27.0897 26.201C27.0897 25.5506 26.5624 25.0232 25.9119 25.0232C25.2615 25.0232 24.7341 25.5506 24.7341 26.201C24.7341 26.8516 25.2615 27.3788 25.9119 27.3788ZM25.9119 25.8084C26.016 25.8084 26.1159 25.8498 26.1895 25.9234C26.2632 25.997 26.3045 26.0969 26.3045 26.201C26.3045 26.3051 26.2632 26.405 26.1895 26.4786C26.1159 26.5523 26.016 26.5936 25.9119 26.5936C25.8078 26.5936 25.7079 26.5523 25.6343 26.4786C25.5607 26.405 25.5193 26.3051 25.5193 26.201C25.5193 26.0969 25.5607 25.997 25.6343 25.9234C25.7079 25.8498 25.8078 25.8084 25.9119 25.8084Z" fill="#3B16A1"/>
</g>
<defs>
<clipPath id="clip0_4001_469">
<rect width="40" height="40" fill="white"/>
</clipPath>
</defs>
</svg>
