<svg width="40" height="40" viewBox="0 0 40 40" fill="none" xmlns="http://www.w3.org/2000/svg">
<path d="M36 27V8C36 6.89543 35.1046 6 34 6H6C4.89543 6 4 6.89543 4 8V27M12 9H9C8.44772 9 8 9.44772 8 10V21C8 21.5523 8.44772 22 9 22H19C19.5523 22 20 21.5523 20 21V10C20 9.44772 19.5523 9 19 9H16M12 9V12C12 12.5523 12.4477 13 13 13H15C15.5523 13 16 12.5523 16 12V9M12 9H16M23 9H33M33 11.5H23M23 16.5H29M23 14H33M2 29V32C2 33.1046 2.89543 34 4 34H36C37.1046 34 38 33.1046 38 32V29H2ZM24.8772 20C24.8065 20.0245 24.7416 20.0621 24.6861 20.1106C24.6306 20.1591 24.5857 20.2176 24.5539 20.2828C24.522 20.3479 24.5039 20.4184 24.5006 20.4903C24.4973 20.5621 24.5088 20.6339 24.5346 20.7014L26.3069 25.3609C26.3588 25.497 26.465 25.6079 26.6022 25.6693C26.7393 25.7307 26.8964 25.7376 27.0389 25.6885C27.1733 25.6419 27.287 25.5478 27.3543 25.4218L27.7914 24.5981L28.9677 25.7952C29.0443 25.8729 29.143 25.9275 29.2515 25.9523C29.3601 25.9771 29.4739 25.971 29.579 25.9349C29.6526 25.9094 29.721 25.8691 29.7792 25.8163L30.3229 25.3199C30.3778 25.2698 30.4217 25.2099 30.4521 25.1435C30.4825 25.0771 30.4988 25.0056 30.5 24.9331C30.5012 24.8607 30.4874 24.7887 30.4592 24.7214C30.4311 24.6541 30.3893 24.5928 30.3362 24.5411L29.1318 23.3671L30.0533 22.9541C30.1534 22.9096 30.2378 22.8382 30.2964 22.7487C30.355 22.6592 30.3852 22.5554 30.3834 22.4498C30.3816 22.3442 30.3479 22.2414 30.2863 22.1538C30.2247 22.0662 30.1379 21.9975 30.0364 21.956L25.2973 20.0115C25.1639 19.9568 25.0137 19.9527 24.8772 20Z" stroke="#3B16A1" stroke-width="1.25"/>
</svg>
