<svg width="40" height="40" viewBox="0 0 40 40" fill="none" xmlns="http://www.w3.org/2000/svg">
<path d="M28.7539 2.34375V2.59375H29.0039H30.942C32.023 2.59375 33.0378 3.01488 33.8019 3.78057L33.9788 3.60398L33.8019 3.78058C34.5659 4.54619 34.9856 5.56271 34.9844 6.6451L34.9522 35.7076C34.9498 37.9365 33.1359 39.75 30.9098 39.75H9.05797C7.97699 39.75 6.96213 39.3289 6.19807 38.5632C5.43407 37.7975 5.01445 36.781 5.01563 35.6986L5.04774 6.63614C5.05024 4.40721 6.86415 2.59375 9.09008 2.59375H11.0352H11.2852V2.34375V1.95312C11.2852 1.01424 12.0494 0.25 12.9883 0.25H27.0508C27.9897 0.25 28.7539 1.01424 28.7539 1.95312V2.34375ZM13.3789 2.09375H13.1289V2.34375V4.6875V4.9375H13.3789H26.6602H26.9102V4.6875V2.34375V2.09375H26.6602H13.3789ZM11.2852 4.6875V4.4375H11.0352H9.09008C7.87718 4.4375 6.89031 5.42466 6.88899 6.63824L6.85688 35.7007C6.85626 36.289 7.08516 36.8436 7.5006 37.26L7.67758 37.0834L7.50062 37.26C7.91608 37.6764 8.46997 37.9062 9.05797 37.9062H30.9098C32.1227 37.9062 33.1095 36.9191 33.1109 35.7055L33.1431 6.64303C33.1438 6.0547 32.9148 5.50005 32.4994 5.08372C32.0839 4.66738 31.53 4.4375 30.942 4.4375H29.0039H28.7539V4.6875V5.07812C28.7539 6.01701 27.9897 6.78125 27.0508 6.78125H12.9883C12.0494 6.78125 11.2852 6.01701 11.2852 5.07812V4.6875Z" fill="#3B16A1" stroke="white" stroke-width="0.5"/>
<path d="M12.708 22.7275L12.5312 22.5507L11.894 21.9135C11.534 21.5535 10.9504 21.5535 10.5903 21.9135L10.5903 21.9135C10.2303 22.2734 10.2303 22.8571 10.5903 23.2172L10.5903 23.2172M12.708 22.7275L10.5903 23.2172M12.708 22.7275L12.8848 22.5507L15.5873 19.8482C15.5873 19.8482 15.5873 19.8482 15.5873 19.8482C15.9473 19.4882 16.5311 19.4882 16.8911 19.8483C17.2511 20.2083 17.2511 20.792 16.8911 21.152L16.8911 21.152L13.3599 24.6831C13.187 24.856 12.9525 24.9532 12.708 24.9532C12.4636 24.9532 12.2291 24.856 12.0562 24.6832C12.0562 24.6832 12.0562 24.6831 12.0562 24.6831M12.708 22.7275L12.0562 24.6831M10.5903 23.2172L12.0562 24.6831M10.5903 23.2172L12.0562 24.6831M12.5312 14.1415L12.708 14.3183L12.8848 14.1415L15.5873 11.4391C15.5873 11.4391 15.5873 11.4391 15.5873 11.439C15.9474 11.079 16.531 11.079 16.8911 11.4391L16.8911 11.4391C17.2511 11.7992 17.2511 12.3829 16.8911 12.7428L16.8911 12.7428L13.3599 16.2739C13.187 16.4468 12.9525 16.5439 12.708 16.5439C12.4636 16.5439 12.2291 16.4468 12.0562 16.2739C12.0562 16.2739 12.0562 16.2739 12.0562 16.2739L10.5903 14.808L10.5903 14.808C10.2303 14.448 10.2303 13.8642 10.5903 13.5043L10.5903 13.5043C10.9504 13.1443 11.534 13.1443 11.894 13.5043C11.894 13.5043 11.894 13.5043 11.894 13.5043L12.5312 14.1415ZM12.5312 30.3632L12.708 30.54L12.8848 30.3632L15.5873 27.6607C15.5873 27.6607 15.5873 27.6607 15.5873 27.6607C15.9473 27.3007 16.5311 27.3007 16.8911 27.6608C17.2511 28.0208 17.2511 28.6045 16.8911 28.9645L16.8911 28.9645L13.3599 32.4956C13.187 32.6685 12.9525 32.7657 12.708 32.7657C12.4636 32.7657 12.2291 32.6685 12.0562 32.4957L10.5903 31.0297C10.2303 30.6696 10.2303 30.0859 10.5903 29.726L10.5903 29.726C10.9504 29.366 11.534 29.366 11.894 29.726L12.5312 30.3632ZM28.7241 15.375H20.3982C19.8891 15.375 19.4764 14.9622 19.4764 14.4531C19.4764 13.944 19.8891 13.5313 20.3982 13.5313H28.7241C29.2332 13.5313 29.646 13.944 29.646 14.4531C29.646 14.9622 29.2332 15.375 28.7241 15.375ZM28.7241 23.1875H20.3982C19.8891 23.1875 19.4764 22.7747 19.4764 22.2656C19.4764 21.7565 19.8891 21.3438 20.3982 21.3438H28.7241C29.2332 21.3438 29.646 21.7565 29.646 22.2656C29.646 22.7747 29.2332 23.1875 28.7241 23.1875ZM20.3982 29.1563H28.7576C29.2668 29.1563 29.6795 29.569 29.6795 30.0781C29.6795 30.5872 29.2667 31 28.7576 31H20.3982C19.8891 31 19.4764 30.5872 19.4764 30.0781C19.4764 29.569 19.8891 29.1563 20.3982 29.1563Z" fill="#3B16A1" stroke="white" stroke-width="0.5"/>
</svg>
