<svg width="40" height="40" viewBox="0 0 40 40" fill="none" xmlns="http://www.w3.org/2000/svg">
<g clip-path="url(#clip0_4001_437)">
<path d="M18.8459 29.6007C18.545 29.38 18.1217 29.4444 17.9006 29.7454L17.8171 29.8591C17.711 30.0035 17.6665 30.1841 17.6935 30.3613C17.7205 30.5385 17.8167 30.6977 17.961 30.8039C18.0769 30.8897 18.2174 30.936 18.3616 30.9359C18.4675 30.9361 18.572 30.9113 18.6665 30.8636C18.7611 30.8159 18.8431 30.7466 18.906 30.6614L18.9907 30.5461C19.0969 30.4016 19.1412 30.2207 19.1141 30.0434C19.0869 29.8662 18.9904 29.7069 18.8459 29.6007Z" fill="#3B16A1"/>
<path d="M19.0224 36.0345L17.2831 32.8718L18.907 30.6601C18.9596 30.5885 18.9975 30.5073 19.0187 30.421C19.0399 30.3348 19.0439 30.2452 19.0304 30.1574C19.017 30.0696 18.9864 29.9853 18.9403 29.9094C18.8943 29.8334 18.8338 29.7673 18.7622 29.7147C18.6906 29.6621 18.6093 29.6242 18.5231 29.603C18.4368 29.5818 18.3473 29.5778 18.2595 29.5913C18.1717 29.6048 18.0874 29.6354 18.0115 29.6814C17.9355 29.7275 17.8694 29.788 17.8168 29.8596L15.9373 32.4194C15.861 32.5233 15.816 32.6469 15.8076 32.7756C15.7992 32.9042 15.8277 33.0326 15.8898 33.1456L17.8373 36.6863V36.6862C17.9238 36.8434 18.0691 36.9597 18.2413 37.0097C18.4136 37.0597 18.5987 37.0393 18.7558 36.9528C18.8336 36.91 18.9022 36.8523 18.9577 36.783C19.0132 36.7137 19.0546 36.6341 19.0793 36.5489C19.1041 36.4636 19.1118 36.3743 19.102 36.286C19.0922 36.1978 19.0652 36.1123 19.0224 36.0345ZM24.0629 32.4195L22.191 29.8701C22.0842 29.7271 21.9252 29.6321 21.7487 29.6058C21.5722 29.5795 21.3924 29.6241 21.2486 29.7297C21.1048 29.8354 21.0085 29.9936 20.9808 30.1699C20.9531 30.3462 20.9962 30.5263 21.1007 30.671L22.7167 32.8719L20.9893 36.0131C20.9028 36.1702 20.8822 36.3553 20.9322 36.5276C20.9822 36.6999 21.0986 36.8453 21.2557 36.9318C21.4129 37.0183 21.598 37.0388 21.7703 36.9889C21.9426 36.9389 22.088 36.8225 22.1745 36.6653L24.1103 33.1458C24.1724 33.0328 24.201 32.9044 24.1926 32.7757C24.1842 32.647 24.1392 32.5234 24.0629 32.4195ZM25.1345 21.7916C25.0254 21.7342 24.9026 21.7078 24.7795 21.7152C24.6565 21.7226 24.5377 21.7634 24.4362 21.8334C24.0339 22.1105 23.6607 22.4041 23.3268 22.7059C21.5068 24.3512 19.7776 24.1285 19.7099 24.1189C19.6691 24.1123 19.6279 24.1096 19.5866 24.1108C18.8673 24.1292 17.5704 23.472 16.1985 22.3945C15.9908 22.2313 15.7774 22.0756 15.5586 21.9277C15.4569 21.859 15.3384 21.8193 15.2159 21.8128C15.0933 21.8063 14.9713 21.8333 14.8629 21.8909C14.7545 21.9485 14.6638 22.0346 14.6006 22.1398C14.5374 22.245 14.504 22.3654 14.504 22.4882V24.8082C14.5041 24.9217 14.5327 25.0334 14.5873 25.133C14.6419 25.2325 14.7206 25.3168 14.8163 25.3779L19.6117 28.5823C19.6125 28.5828 19.6132 28.5834 19.6139 28.5839L19.6266 28.5924C19.7374 28.6657 19.8673 28.7048 20.0001 28.7048C20.136 28.7048 20.2688 28.6639 20.3812 28.5874L20.3881 28.5829C20.3908 28.5812 20.3934 28.5794 20.3961 28.5776L25.1801 25.3808C25.2769 25.3199 25.3567 25.2355 25.412 25.1353C25.4672 25.0352 25.4962 24.9227 25.4962 24.8084V22.3903C25.4962 22.267 25.4626 22.1461 25.3988 22.0406C25.335 21.935 25.2436 21.8489 25.1345 21.7916ZM24.1436 24.4464L20 27.2152L15.8566 24.4464V23.8313C16.8655 24.5645 18.3497 25.4638 19.5594 25.4637H19.5673C19.9735 25.5086 22.0448 25.6307 24.1437 23.7895V24.4464H24.1436Z" fill="#3B16A1"/>
<path d="M20.6671 27.9174C20.6453 27.7862 20.5852 27.6644 20.4945 27.5671C20.4037 27.4699 20.2863 27.4016 20.1569 27.3707C20.0276 27.3399 19.892 27.3479 19.7671 27.3937C19.6422 27.4395 19.5337 27.5211 19.455 27.6283L17.9005 29.7456C17.8479 29.8172 17.81 29.8984 17.7888 29.9847C17.7676 30.071 17.7637 30.1605 17.7771 30.2483C17.7906 30.3361 17.8212 30.4204 17.8672 30.4964C17.9133 30.5723 17.9738 30.6385 18.0454 30.691C18.1612 30.7764 18.3013 30.8224 18.4451 30.8223C18.5514 30.8224 18.6562 30.7974 18.751 30.7494C18.8459 30.7014 18.928 30.6317 18.9909 30.546L20.5372 28.4399C20.5935 28.3664 20.6342 28.2821 20.6565 28.1922C20.6789 28.1023 20.6825 28.0088 20.6671 27.9174ZM30.3032 6.11499C30.2898 6.00905 29.973 3.72264 27.8208 2.82069C27.8833 2.41913 27.8767 1.90303 27.6218 1.40093C27.2792 0.726082 26.603 0.286316 25.612 0.0936597C25.5695 0.085385 25.5263 0.0812252 25.483 0.0812378H16.4059C12.7201 0.0812378 9.72144 3.07983 9.72144 6.76577V10.3276C9.72144 11.2555 10.0378 12.1605 10.612 12.8755C10.8967 13.23 11.2473 13.8491 11.3002 14.7852C11.3099 14.9611 11.3879 15.1262 11.5176 15.2453C11.6473 15.3645 11.8184 15.4282 11.9945 15.423C12.1705 15.418 12.3376 15.3446 12.4603 15.2184C12.583 15.0921 12.6517 14.923 12.6517 14.7469V10.1032C13.1109 8.20405 14.6782 7.83444 14.9476 7.78452H17.8837C18.2291 7.78452 18.5687 7.73178 18.8933 7.62772C19.4516 7.44866 20.3373 7.11913 20.9821 6.87421C21.4144 6.7102 21.8907 6.70422 22.3269 6.85733L25.4702 7.96077C27.0416 8.54046 27.3221 9.91999 27.3568 10.1367V15.7099C27.3568 15.7988 27.3743 15.8867 27.4083 15.9688C27.4423 16.0509 27.4922 16.1254 27.5551 16.1882C27.6179 16.251 27.6925 16.3008 27.7747 16.3347C27.8568 16.3686 27.9448 16.386 28.0336 16.3858C28.1955 16.3856 28.3519 16.3273 28.4746 16.2216C28.5972 16.1159 28.6779 15.9698 28.702 15.8097C28.7046 15.7923 28.9746 14.048 29.8454 12.6514C30.1484 12.1652 30.3086 11.6109 30.3086 11.0484V6.20038C30.3086 6.17186 30.3068 6.14335 30.3032 6.11499ZM28.956 11.0481C28.956 11.3502 28.8707 11.6499 28.7093 11.9164V10.0905C28.7093 10.066 28.708 10.0417 28.7053 10.0174C28.6947 9.91921 28.4153 7.60155 25.9321 6.68936L25.9229 6.68608L22.7749 5.58092C22.4222 5.45722 22.0512 5.39406 21.6775 5.39413C21.2785 5.39413 20.8796 5.46608 20.5017 5.60983C19.5989 5.9528 18.8998 6.20522 18.4802 6.33975C18.2873 6.40126 18.0861 6.43239 17.8836 6.43202H14.8929C14.8639 6.43202 14.8349 6.43389 14.806 6.43757C14.6916 6.45241 11.9942 6.836 11.3153 9.87858C11.3046 9.92693 11.2991 9.97631 11.2991 10.0258V11.4177C11.1504 11.0735 11.0738 10.7026 11.0739 10.3276V6.76592C11.0739 3.82592 13.4658 1.43397 16.4057 1.43397H25.4147C25.7877 1.51343 26.241 1.67647 26.4129 2.00819C26.6235 2.41421 26.3836 2.97327 26.3834 2.97374C26.3407 3.06458 26.3188 3.16378 26.3193 3.26414C26.3197 3.3645 26.3425 3.4635 26.3859 3.55397C26.4294 3.64444 26.4924 3.7241 26.5705 3.78718C26.6485 3.85026 26.7396 3.89517 26.8372 3.91866C28.5589 4.33311 28.9101 5.98444 28.9559 6.25155L28.956 11.0481Z" fill="#3B16A1"/>
<path d="M28.7054 10.0174C28.6948 9.91923 28.4153 7.60157 25.9321 6.68939L25.923 6.6861L22.7749 5.58095C22.0375 5.32242 21.2324 5.3326 20.5017 5.6097C19.5989 5.95267 18.8998 6.20509 18.4802 6.3397C18.2873 6.40118 18.086 6.43228 17.8836 6.43189H14.8929C14.8639 6.43189 14.8349 6.43376 14.806 6.43743C14.6916 6.45228 11.9941 6.83587 11.3153 9.87845C11.3045 9.92679 11.2991 9.97618 11.2991 10.0257V15.8395L11.2992 15.8545C11.3037 16.0564 11.4466 20.8257 14.7419 23.0069L14.7589 23.0189C14.7731 23.0289 14.7872 23.0389 14.802 23.0488C14.9938 23.1786 15.1809 23.3152 15.3631 23.4583C16.3231 24.2121 18.1322 25.4638 19.5594 25.4638H19.5673C19.6448 25.4723 19.7831 25.4837 19.9708 25.4837C20.7796 25.4837 22.5052 25.2717 24.2337 23.7092C24.5238 23.4471 24.8499 23.1907 25.2035 22.9471L25.2541 22.9117C25.2706 22.9001 25.287 22.8884 25.3041 22.877C26.4033 22.1387 28.307 20.2337 28.7067 15.7701C28.7085 15.7501 28.7095 15.7299 28.7095 15.7097V10.0905C28.7094 10.0661 28.708 10.0417 28.7054 10.0174ZM27.3567 15.6792C26.9882 19.7074 25.2719 21.2691 24.5499 21.754C24.5242 21.7713 24.4989 21.7891 24.4736 21.8069L24.4361 21.8333C24.0338 22.1104 23.6606 22.404 23.3266 22.7058C21.5134 24.345 19.7899 24.13 19.7054 24.1181C19.6661 24.1122 19.6263 24.1098 19.5865 24.1109C18.8672 24.1293 17.5703 23.472 16.1984 22.3945C15.9885 22.2297 15.7734 22.0727 15.5588 21.9279L15.5422 21.9162C15.5252 21.904 15.5081 21.8921 15.4907 21.8805C12.8315 20.1204 12.6575 16.0016 12.6516 15.8297V10.1031C13.1125 8.19704 14.6895 7.83165 14.9465 7.78446H17.8837C18.2291 7.78446 18.5687 7.73173 18.8933 7.62767C19.4516 7.4486 20.3374 7.11907 20.9821 6.87415C21.4144 6.71014 21.8907 6.70417 22.3269 6.85728L25.4702 7.96071C27.0416 8.5404 27.322 9.91993 27.3568 10.1367V15.6792H27.3567ZM20.6049 27.7264C20.553 27.6228 20.4754 27.5342 20.3795 27.4691C20.2836 27.4041 20.1727 27.3648 20.0572 27.3549C19.9418 27.3453 19.8258 27.3654 19.7203 27.4133C19.6149 27.4612 19.5234 27.5353 19.4548 27.6286L17.8348 29.835C17.7287 29.9795 17.6843 30.1602 17.7114 30.3374C17.7385 30.5146 17.8348 30.6738 17.9791 30.7801C18.095 30.8656 18.2353 30.9118 18.3793 30.9117C18.4854 30.9119 18.59 30.887 18.6846 30.8392C18.7793 30.7914 18.8614 30.722 18.9242 30.6366L20.5443 28.4383C20.63 28.322 20.6763 28.1734 20.6763 28.0291C20.6762 27.924 20.6518 27.8204 20.6049 27.7264ZM20.6482 38.6153C20.5261 38.4876 20.3588 38.4127 20.1821 38.4068C20.0055 38.4009 19.8335 38.4644 19.7031 38.5837L19.5485 38.7251C19.4361 38.8279 19.3617 38.9657 19.3373 39.1161C19.313 39.2665 19.3402 39.4207 19.4145 39.5538L19.4192 39.5623C19.4702 39.6536 19.5416 39.7318 19.6279 39.7909C19.7143 39.8499 19.8131 39.8881 19.9167 39.9025C20.0202 39.9169 20.1257 39.9071 20.2249 39.8738C20.324 39.8405 20.4141 39.7847 20.488 39.7107L20.6377 39.5608C20.7627 39.4358 20.8338 39.2669 20.8357 39.0902C20.8377 38.9135 20.7704 38.743 20.6482 38.6153Z" fill="#3B16A1"/>
<path d="M20.4515 38.7251L20.2969 38.5837C20.1664 38.4646 19.9945 38.4013 19.8179 38.4073C19.6414 38.4133 19.4742 38.4881 19.3521 38.6158C19.23 38.7435 19.1627 38.9139 19.1646 39.0905C19.1665 39.2672 19.2374 39.4361 19.3622 39.5611L19.5122 39.711C19.5865 39.7853 19.677 39.8412 19.7765 39.8744C19.8761 39.9077 19.9821 39.9172 20.086 39.9024C20.19 39.8875 20.289 39.8487 20.3753 39.7889C20.4617 39.7292 20.5329 39.6501 20.5833 39.558L20.5881 39.5495C20.6609 39.4167 20.687 39.2632 20.6623 39.1137C20.6375 38.9642 20.5633 38.8274 20.4515 38.7251Z" fill="#3B16A1"/>
<path d="M20.4628 38.7357L20.462 38.7349C20.3368 38.6179 20.172 38.5527 20.0007 38.5525C19.8294 38.5523 19.6644 38.6171 19.539 38.7338L19.537 38.7357C19.4693 38.7974 19.4149 38.8722 19.377 38.9556C19.3391 39.039 19.3185 39.1292 19.3166 39.2208C19.3146 39.3123 19.3312 39.4033 19.3655 39.4883C19.3998 39.5732 19.4509 39.6503 19.5159 39.7149L19.523 39.722C19.6496 39.8482 19.8211 39.919 19.9998 39.9187C20.0887 39.9188 20.1766 39.9014 20.2587 39.8674C20.3407 39.8335 20.4152 39.7836 20.478 39.7208L20.4851 39.7136C20.5497 39.649 20.6006 39.5719 20.6346 39.487C20.6686 39.4022 20.6851 39.3113 20.683 39.2199C20.681 39.1285 20.6604 39.0384 20.6226 38.9552C20.5847 38.872 20.5304 38.7973 20.4628 38.7357ZM20.2193 27.3742C19.9392 27.2845 19.6319 27.3885 19.4613 27.6283C19.2706 27.8969 19.302 28.2629 19.5345 28.4965C19.5973 28.5596 19.672 28.6096 19.7542 28.6437C19.8365 28.6779 19.9247 28.6953 20.0138 28.6952C20.1496 28.6952 20.2862 28.6546 20.404 28.5716C20.4927 28.5092 20.5651 28.4264 20.6151 28.3301C20.665 28.2339 20.6911 28.127 20.6911 28.0186V28.0169C20.6911 27.7226 20.4997 27.4636 20.2193 27.3742Z" fill="#3B16A1"/>
<path d="M20.5496 27.6228L20.5438 27.615C20.4592 27.5005 20.3407 27.4156 20.205 27.3724C20.0693 27.3292 19.9235 27.3299 19.7883 27.3745C19.6531 27.419 19.5354 27.5051 19.452 27.6205C19.3685 27.7359 19.3237 27.8746 19.3237 28.017V28.0286C19.3237 28.2776 19.4635 28.5045 19.6829 28.6223C19.7809 28.6748 19.8903 28.7022 20.0015 28.702C20.1336 28.702 20.2655 28.6637 20.379 28.5886C20.4555 28.538 20.521 28.4723 20.5713 28.3956C20.6217 28.3189 20.6559 28.2327 20.6718 28.1423C20.6878 28.052 20.6852 27.9593 20.6642 27.87C20.6432 27.7807 20.6042 27.6966 20.5496 27.6228Z" fill="#3B16A1"/>
<path d="M28.0453 25.4982C28.0107 25.4067 27.9566 25.3238 27.8868 25.2553C27.817 25.1867 27.7332 25.1341 27.641 25.1011L25.048 24.1716C24.9485 24.1358 24.842 24.1239 24.737 24.1368C24.6321 24.1497 24.5316 24.187 24.4437 24.2458L19.6392 27.4563L19.6352 27.4589L20.0125 28.0199L19.6268 27.4646C19.5177 27.5368 19.432 27.639 19.3798 27.7589C19.3277 27.8787 19.3114 28.0112 19.333 28.1401C19.3504 28.2447 19.3922 28.3438 19.455 28.4293L22.9725 33.22C23.0397 33.3116 23.129 33.3848 23.232 33.4328C23.3349 33.4808 23.4484 33.5021 23.5618 33.4947C23.6752 33.4873 23.7849 33.4514 23.8807 33.3904C23.9766 33.3293 24.0555 33.2451 24.1102 33.1455L28.0053 26.0636C28.0525 25.9779 28.0805 25.8829 28.0874 25.7853C28.0943 25.6877 28.0799 25.5898 28.0453 25.4982ZM23.4357 31.5653L20.9634 28.1982L24.912 25.5596L26.438 26.1067L23.4357 31.5653Z" fill="#3B16A1"/>
<path d="M20.6663 27.9121C20.6506 27.8222 20.6168 27.7365 20.5671 27.66C20.5174 27.5835 20.4527 27.5179 20.3769 27.4671L15.5564 24.2459C15.4684 24.1872 15.368 24.1499 15.263 24.137C15.1581 24.1241 15.0516 24.136 14.9521 24.1717L12.359 25.1012C12.2669 25.1342 12.183 25.1868 12.1132 25.2554C12.0434 25.3239 11.9893 25.4068 11.9547 25.4984C11.92 25.5899 11.9057 25.6878 11.9126 25.7854C11.9195 25.883 11.9475 25.978 11.9947 26.0637L15.8898 33.1456C15.9482 33.2517 16.0339 33.3402 16.1382 33.4018C16.2424 33.4634 16.3613 33.496 16.4824 33.496C16.5885 33.4959 16.6932 33.4709 16.7879 33.4229C16.8826 33.375 16.9647 33.3054 17.0275 33.2198L18.9071 30.66L18.9115 30.6539L20.5452 28.4288C20.5992 28.3553 20.6377 28.2716 20.6585 28.1828C20.6793 28.094 20.682 28.0019 20.6663 27.9121ZM17.8169 29.8593L17.8121 29.8658L16.5642 31.5654L13.5618 26.1068L15.0879 25.5597L19.0364 28.1982L17.8169 29.8593ZM39.9664 37.0434L39.094 31.7752C38.8191 30.115 37.6653 28.7278 36.0828 28.1555L27.6426 25.1019C27.5155 25.0559 27.3775 25.0491 27.2465 25.0822C27.1155 25.1154 26.9974 25.1871 26.9075 25.288C26.8176 25.389 26.76 25.5145 26.7422 25.6485C26.7243 25.7825 26.747 25.9188 26.8074 26.0397L28.5696 29.5736L26.8404 29.6003C26.7249 29.602 26.6118 29.6333 26.5119 29.6912C26.4119 29.749 26.3285 29.8315 26.2695 29.9308C26.2104 30.03 26.1778 30.1428 26.1747 30.2582C26.1716 30.3737 26.1981 30.488 26.2517 30.5903L26.961 31.9444L19.7029 38.584C19.6955 38.5908 19.6882 38.5977 19.6811 38.6048L19.5313 38.7546C19.4279 38.858 19.3608 38.9921 19.3401 39.1368C19.3193 39.2815 19.3461 39.429 19.4162 39.5573L19.4215 39.5669C19.4798 39.6734 19.5656 39.7622 19.67 39.8241C19.7744 39.8859 19.8935 39.9186 20.0149 39.9186H37.5282C37.887 39.9189 38.2416 39.841 38.5671 39.6902C38.8927 39.5394 39.1814 39.3194 39.4132 39.0456C39.6455 38.7721 39.8153 38.4513 39.9108 38.1056C40.0064 37.7598 40.0254 37.3973 39.9664 37.0434ZM38.3818 38.1708C38.2768 38.2948 38.1461 38.3944 37.9987 38.4627C37.8513 38.5309 37.6908 38.5662 37.5283 38.5661H21.7263L28.2584 32.5908C28.3686 32.4901 28.4423 32.3558 28.4681 32.2087C28.4939 32.0617 28.4703 31.9103 28.401 31.7781L27.9598 30.9357L29.665 30.9094C29.7793 30.9077 29.8913 30.8769 29.9905 30.8201C30.0898 30.7633 30.173 30.6823 30.2324 30.5846C30.2918 30.4869 30.3255 30.3758 30.3303 30.2615C30.3351 30.1473 30.3108 30.0337 30.2598 29.9314L28.7725 26.9489L35.623 29.4272C36.746 29.8335 37.5649 30.8178 37.76 31.9961L38.6324 37.2643V37.2643C38.659 37.4246 38.6504 37.5887 38.6071 37.7452C38.5639 37.9018 38.487 38.047 38.3818 38.1708Z" fill="#3B16A1"/>
<path d="M20.4687 38.7411L20.4609 38.734C20.3319 38.6173 20.163 38.5547 19.9892 38.5593C19.8154 38.5639 19.65 38.6352 19.5274 38.7585L19.5204 38.7656C19.4262 38.8603 19.3622 38.9808 19.3364 39.1119C19.3107 39.243 19.3243 39.3788 19.3756 39.5021C19.4269 39.6255 19.5136 39.7309 19.6247 39.805C19.7358 39.8791 19.8664 39.9187 20 39.9187H20.0148C20.1514 39.9187 20.2848 39.8773 20.3975 39.8C20.5101 39.7227 20.5967 39.6131 20.6458 39.4857C20.695 39.3582 20.7044 39.2188 20.6728 39.0859C20.6412 38.953 20.57 38.8328 20.4687 38.7411Z" fill="#3B16A1"/>
<path d="M20.4476 38.7215C20.3718 38.6533 20.2816 38.6031 20.1836 38.5747C20.0857 38.5463 19.9825 38.5404 19.882 38.5576C19.7815 38.5746 19.6861 38.6142 19.603 38.6733C19.5199 38.7324 19.4513 38.8096 19.4022 38.899L19.3975 38.9075C19.3281 39.0341 19.301 39.1797 19.3202 39.3228C19.3395 39.466 19.4041 39.5992 19.5045 39.703L19.5069 39.7055C19.5699 39.7708 19.6454 39.8227 19.729 39.8581C19.8125 39.8935 19.9023 39.9117 19.993 39.9115C20.1559 39.9115 20.3193 39.8529 20.4486 39.7347L20.4558 39.7283C20.5172 39.6723 20.5678 39.6054 20.605 39.531C20.7411 39.2589 20.6738 38.925 20.4476 38.7215Z" fill="#3B16A1"/>
<path d="M20.4767 38.7628L20.4739 38.7599L20.4685 38.7546L20.3185 38.6047C20.3115 38.5976 20.3043 38.5907 20.2969 38.584L13.0388 31.9444L13.7481 30.5903C13.8017 30.488 13.8281 30.3737 13.825 30.2583C13.8219 30.1428 13.7892 30.0302 13.7302 29.9309C13.6712 29.8317 13.5878 29.7492 13.4879 29.6913C13.388 29.6334 13.275 29.6021 13.1595 29.6003L11.4302 29.5736L13.1924 26.0397C13.3158 25.7922 13.276 25.4945 13.0922 25.288C12.9083 25.0815 12.6171 25.0077 12.3572 25.1019L3.9171 28.1555C2.3346 28.7278 1.18069 30.1149 0.905768 31.7752L0.0333462 37.0434C-0.025548 37.3973 -0.00654761 37.7598 0.0890228 38.1056C0.184593 38.4514 0.354434 38.7722 0.586706 39.0456C0.818555 39.3194 1.10732 39.5394 1.43287 39.6901C1.75842 39.8409 2.11294 39.9189 2.47171 39.9186H20C20.1339 39.9187 20.2649 39.8789 20.3762 39.8045C20.4875 39.73 20.5742 39.6241 20.6253 39.5003C20.6763 39.3765 20.6895 39.2403 20.663 39.109C20.6366 38.9777 20.5717 38.8572 20.4767 38.7628ZM2.47178 38.5661C2.30934 38.5663 2.14882 38.531 2.00142 38.4627C1.85402 38.3944 1.72329 38.2948 1.61835 38.1708C1.51321 38.047 1.43634 37.9017 1.39308 37.7452C1.34982 37.5886 1.34122 37.4245 1.36788 37.2642L2.2403 31.996C2.33656 31.4168 2.58522 30.8735 2.96075 30.4221C3.33629 29.9707 3.82518 29.6273 4.37725 29.4272L11.2276 26.9489L9.74046 29.9312C9.68941 30.0335 9.66515 30.1471 9.66994 30.2614C9.67474 30.3756 9.70843 30.4868 9.76788 30.5845C9.82727 30.6822 9.91047 30.7632 10.0097 30.82C10.1089 30.8768 10.221 30.9075 10.3353 30.9092L12.0405 30.9356L11.5992 31.778C11.53 31.9102 11.5064 32.0616 11.5322 32.2086C11.558 32.3556 11.6317 32.49 11.7418 32.5907L18.2739 38.5661H2.47178Z" fill="#3B16A1"/>
<path d="M22.3019 30.4342C22.326 30.3377 22.3286 30.2372 22.3094 30.1396C22.2902 30.0421 22.2497 29.9499 22.1909 29.8698L20.5451 27.6285C20.3721 27.3929 20.0671 27.2992 19.7895 27.3903C19.643 27.4386 19.5174 27.5357 19.4339 27.6654L17.8182 29.8577C17.7341 29.9715 17.6878 30.1087 17.6857 30.2502C17.6837 30.3916 17.7261 30.5302 17.8069 30.6463L18.495 31.6343L17.762 36.2544C17.7385 36.4028 17.765 36.5547 17.8374 36.6863L19.4075 39.5411C19.4659 39.6472 19.5517 39.7357 19.6559 39.7973C19.7601 39.859 19.879 39.8915 20.0001 39.8915C20.1212 39.8915 20.2401 39.859 20.3443 39.7973C20.4486 39.7357 20.5343 39.6472 20.5927 39.5411L22.1746 36.6651C22.2294 36.5653 22.2582 36.4532 22.2582 36.3393V36.3389C22.2582 36.3034 22.2553 36.2679 22.2499 36.2329L21.5203 31.6344L22.2009 30.6572C22.2477 30.5896 22.2819 30.514 22.3019 30.4342ZM20.0001 37.8119L19.1341 36.2375L19.8735 31.5774C19.9009 31.4048 19.8604 31.2283 19.7605 31.085L19.1938 30.2711L20.0021 29.1743L20.8146 30.2809L20.2546 31.085C20.1548 31.2283 20.1143 31.4048 20.1417 31.5774L20.8777 36.2162L20.0001 37.8119Z" fill="#3B16A1"/>
</g>
<defs>
<clipPath id="clip0_4001_437">
<rect width="40" height="40" fill="white"/>
</clipPath>
</defs>
</svg>
