<svg width="40" height="40" viewBox="0 0 40 40" fill="none" xmlns="http://www.w3.org/2000/svg">
<g clip-path="url(#clip0_4001_489)">
<path d="M38 17H31.476C31.8104 16.6362 31.9972 16.1608 32 15.6667V3C32 2.46957 31.7893 1.96086 31.4142 1.58579C31.0391 1.21071 30.5304 1 30 1H17.3333C16.824 1 16.334 1.19533 15.9647 1.546L9.82333 5.85933C9.47875 6.01957 9.18695 6.27467 8.9821 6.59475C8.77726 6.91483 8.66784 7.28665 8.66667 7.66667V17C8.15733 17 7.66733 17.1953 7.298 17.546L1.15667 21.8593C0.812083 22.0196 0.520284 22.2747 0.315436 22.5947C0.110589 22.9148 0.00117292 23.2866 0 23.6667L0 37C0 37.5304 0.210714 38.0391 0.585786 38.4142C0.960859 38.7893 1.46957 39 2 39H16C16.4936 38.9983 16.9689 38.8129 17.3333 38.48C17.698 38.8133 18.1733 38.998 18.6667 39H32.6667C33.2073 39 33.7253 38.7793 34.1 38.3893L39.4053 33.084C39.7853 32.7107 40 32.2 40 31.6667V19C39.9974 18.4704 39.7858 17.9632 39.4113 17.5887C39.0368 17.2142 38.5296 17.0026 38 17ZM33.556 21.8847C33.2807 21.7434 32.9761 21.6687 32.6667 21.6667H26.8227L30.156 18.3333H37.6147L33.556 21.8847ZM16 21.6667H10.6667C10.4899 21.6667 10.3203 21.5964 10.1953 21.4714C10.0702 21.3464 10 21.1768 10 21V7.66667C10 7.48986 10.0702 7.32029 10.1953 7.19526C10.3203 7.07024 10.4899 7 10.6667 7H24.6667C24.8435 7 25.013 7.07024 25.1381 7.19526C25.2631 7.32029 25.3333 7.48986 25.3333 7.66667V21C25.3339 21.1745 25.2656 21.3422 25.1433 21.4667L25.13 21.48C25.0058 21.6003 24.8395 21.6673 24.6667 21.6667H16ZM26.4847 6.844L30.6667 3.18467V15.6667C30.6662 15.7539 30.6483 15.8401 30.6139 15.9202C30.5796 16.0004 30.5295 16.0729 30.4667 16.1333L26.6667 19.9393V7.66667C26.6659 7.38255 26.6038 7.10194 26.4847 6.844ZM25.556 5.88467C25.2807 5.74337 24.9761 5.6687 24.6667 5.66667H19.9433L24.2287 2.33333H29.6147L25.556 5.88467ZM16.7767 2.60533C16.8104 2.58163 16.8419 2.55485 16.8707 2.52533C16.9312 2.4642 17.0032 2.41573 17.0827 2.38277C17.1621 2.3498 17.2473 2.333 17.3333 2.33333H22.0567L17.7713 5.66667H12.418L16.7767 2.60533ZM8.11 18.6053C8.14374 18.5816 8.17521 18.5548 8.204 18.5253C8.2645 18.4642 8.33657 18.4157 8.41601 18.3828C8.49545 18.3498 8.58066 18.333 8.66667 18.3333V21C8.66867 21.2273 8.71067 21.4533 8.78933 21.6667H3.75133L8.11 18.6053ZM2 37.6667C1.82319 37.6667 1.65362 37.5964 1.5286 37.4714C1.40357 37.3464 1.33333 37.1768 1.33333 37V23.6667C1.33333 23.4899 1.40357 23.3203 1.5286 23.1953C1.65362 23.0702 1.82319 23 2 23H16C16.1768 23 16.3464 23.0702 16.4714 23.1953C16.5964 23.3203 16.6667 23.4899 16.6667 23.6667V37C16.6666 37.1745 16.5982 37.3421 16.476 37.4667L16.464 37.478C16.34 37.5992 16.1734 37.667 16 37.6667H2ZM18.6667 37.6667C18.4899 37.6667 18.3203 37.5964 18.1953 37.4714C18.0702 37.3464 18 37.1768 18 37V23.6667C18 23.4899 18.0702 23.3203 18.1953 23.1953C18.3203 23.0702 18.4899 23 18.6667 23H32.6667C32.8435 23 33.0131 23.0702 33.1381 23.1953C33.2631 23.3203 33.3333 23.4899 33.3333 23.6667V37C33.3322 37.1703 33.2658 37.3337 33.148 37.4567L33.1333 37.4667L33.124 37.4773C33.0015 37.5968 32.8378 37.6646 32.6667 37.6667H18.6667ZM38.4667 32.1333L34.6667 35.9333V23.6667C34.6659 23.3825 34.6038 23.1019 34.4847 22.844L38.6667 19.1847V31.6667C38.6662 31.7539 38.6483 31.8401 38.6139 31.9202C38.5796 32.0004 38.5295 32.0729 38.4667 32.1333Z" fill="#3B16A1"/>
<path d="M15.3334 16.3334H12.6667C12.3131 16.3334 11.974 16.4739 11.7239 16.7239C11.4739 16.9739 11.3334 17.3131 11.3334 17.6667V19C11.3334 19.3537 11.4739 19.6928 11.7239 19.9428C11.974 20.1929 12.3131 20.3334 12.6667 20.3334H15.3334C15.687 20.3334 16.0262 20.1929 16.2762 19.9428C16.5263 19.6928 16.6667 19.3537 16.6667 19V17.6667C16.6667 17.3131 16.5263 16.9739 16.2762 16.7239C16.0262 16.4739 15.687 16.3334 15.3334 16.3334ZM12.6667 19V17.6667H15.3334V19H12.6667ZM23.3334 16.3334H21.3334C21.1566 16.3334 20.987 16.4036 20.862 16.5286C20.737 16.6537 20.6667 16.8232 20.6667 17C20.6667 17.1769 20.737 17.3464 20.862 17.4714C20.987 17.5965 21.1566 17.6667 21.3334 17.6667H23.3334C23.5102 17.6667 23.6798 17.5965 23.8048 17.4714C23.9298 17.3464 24.0001 17.1769 24.0001 17C24.0001 16.8232 23.9298 16.6537 23.8048 16.5286C23.6798 16.4036 23.5102 16.3334 23.3334 16.3334ZM23.3334 19H21.3334C21.1566 19 20.987 19.0703 20.862 19.1953C20.737 19.3203 20.6667 19.4899 20.6667 19.6667C20.6667 19.8435 20.737 20.0131 20.862 20.1381C20.987 20.2631 21.1566 20.3334 21.3334 20.3334H23.3334C23.5102 20.3334 23.6798 20.2631 23.8048 20.1381C23.9298 20.0131 24.0001 19.8435 24.0001 19.6667C24.0001 19.4899 23.9298 19.3203 23.8048 19.1953C23.6798 19.0703 23.5102 19 23.3334 19ZM6.66675 32.3334H4.00008C3.64646 32.3334 3.30732 32.4738 3.05727 32.7239C2.80722 32.9739 2.66675 33.3131 2.66675 33.6667V35C2.66675 35.3537 2.80722 35.6928 3.05727 35.9429C3.30732 36.1929 3.64646 36.3334 4.00008 36.3334H6.66675C7.02037 36.3334 7.35951 36.1929 7.60956 35.9429C7.85961 35.6928 8.00008 35.3537 8.00008 35V33.6667C8.00008 33.3131 7.85961 32.9739 7.60956 32.7239C7.35951 32.4738 7.02037 32.3334 6.66675 32.3334ZM4.00008 35V33.6667H6.66675V35H4.00008ZM14.6667 32.3334H12.6667C12.4899 32.3334 12.3204 32.4036 12.1953 32.5286C12.0703 32.6537 12.0001 32.8232 12.0001 33C12.0001 33.1769 12.0703 33.3464 12.1953 33.4714C12.3204 33.5965 12.4899 33.6667 12.6667 33.6667H14.6667C14.8436 33.6667 15.0131 33.5965 15.1382 33.4714C15.2632 33.3464 15.3334 33.1769 15.3334 33C15.3334 32.8232 15.2632 32.6537 15.1382 32.5286C15.0131 32.4036 14.8436 32.3334 14.6667 32.3334ZM14.6667 35H12.6667C12.4899 35 12.3204 35.0703 12.1953 35.1953C12.0703 35.3203 12.0001 35.4899 12.0001 35.6667C12.0001 35.8435 12.0703 36.0131 12.1953 36.1381C12.3204 36.2631 12.4899 36.3334 12.6667 36.3334H14.6667C14.8436 36.3334 15.0131 36.2631 15.1382 36.1381C15.2632 36.0131 15.3334 35.8435 15.3334 35.6667C15.3334 35.4899 15.2632 35.3203 15.1382 35.1953C15.0131 35.0703 14.8436 35 14.6667 35ZM23.3334 32.3334H20.6667C20.3131 32.3334 19.974 32.4738 19.7239 32.7239C19.4739 32.9739 19.3334 33.3131 19.3334 33.6667V35C19.3334 35.3537 19.4739 35.6928 19.7239 35.9429C19.974 36.1929 20.3131 36.3334 20.6667 36.3334H23.3334C23.687 36.3334 24.0262 36.1929 24.2762 35.9429C24.5263 35.6928 24.6667 35.3537 24.6667 35V33.6667C24.6667 33.3131 24.5263 32.9739 24.2762 32.7239C24.0262 32.4738 23.687 32.3334 23.3334 32.3334ZM20.6667 35V33.6667H23.3334V35H20.6667ZM31.3334 32.3334H29.3334C29.1566 32.3334 28.987 32.4036 28.862 32.5286C28.737 32.6537 28.6668 32.8232 28.6668 33C28.6668 33.1769 28.737 33.3464 28.862 33.4714C28.987 33.5965 29.1566 33.6667 29.3334 33.6667H31.3334C31.5102 33.6667 31.6798 33.5965 31.8048 33.4714C31.9298 33.3464 32.0001 33.1769 32.0001 33C32.0001 32.8232 31.9298 32.6537 31.8048 32.5286C31.6798 32.4036 31.5102 32.3334 31.3334 32.3334ZM31.3334 35H29.3334C29.1566 35 28.987 35.0703 28.862 35.1953C28.737 35.3203 28.6668 35.4899 28.6668 35.6667C28.6668 35.8435 28.737 36.0131 28.862 36.1381C28.987 36.2631 29.1566 36.3334 29.3334 36.3334H31.3334C31.5102 36.3334 31.6798 36.2631 31.8048 36.1381C31.9298 36.0131 32.0001 35.8435 32.0001 35.6667C32.0001 35.4899 31.9298 35.3203 31.8048 35.1953C31.6798 35.0703 31.5102 35 31.3334 35Z" fill="#3B16A1"/>
</g>
<defs>
<clipPath id="clip0_4001_489">
<rect width="40" height="40" fill="white"/>
</clipPath>
</defs>
</svg>
