<svg width="20" height="20" viewBox="0 0 20 20" fill="none" xmlns="http://www.w3.org/2000/svg">
<path d="M5.61152 14.6094C5.59732 14.5564 5.56943 14.5081 5.53065 14.4693C5.49187 14.4306 5.44356 14.4027 5.39058 14.3885L3.64777 13.9216C3.59478 13.9074 3.53898 13.9074 3.48599 13.9216C3.433 13.9358 3.38468 13.9637 3.3459 14.0025L2.07027 15.2785C2.03152 15.3172 2.00365 15.3655 1.98944 15.4184C1.97524 15.4713 1.9752 15.5271 1.98933 15.58L2.45621 17.3228C2.47041 17.3758 2.4983 17.4241 2.53708 17.4629C2.57587 17.5017 2.62417 17.5296 2.67715 17.5438L4.41996 18.0107C4.44625 18.0177 4.47336 18.0213 4.50058 18.0213C4.58346 18.0213 4.66293 17.9883 4.72152 17.9297L5.99746 16.6541C6.03626 16.6153 6.06417 16.567 6.07838 16.514C6.09259 16.461 6.09259 16.4052 6.0784 16.3522L5.61152 14.6094ZM4.40746 17.3594L3.01309 16.9844L2.63965 15.5938L3.66027 14.5732L5.05433 14.9482L5.42933 16.3422L4.40746 17.3594Z" fill="#111111"/>
<path d="M19.2812 14.8625L17.5125 13.0938C17.4834 13.0647 17.4488 13.0416 17.4107 13.0261C17.3726 13.0105 17.3318 13.0027 17.2906 13.0031C17.2499 13.0027 17.2096 13.0106 17.172 13.0261C17.1344 13.0417 17.1003 13.0647 17.0718 13.0938L16.8594 13.3063C16.4849 12.8748 16.2506 12.3396 16.1875 11.7719L15.9625 9.76563C15.8923 9.13061 15.6092 8.53803 15.1593 8.08438L15.0844 8.00938L15.4875 7.60313C15.516 7.5732 15.5504 7.54964 15.5887 7.53402C15.6269 7.5184 15.6681 7.51107 15.7094 7.51251C16.2854 7.54823 16.8611 7.43812 17.3833 7.19234C17.9055 6.94657 18.3572 6.57307 18.6968 6.10641C19.0364 5.63974 19.2528 5.09497 19.326 4.52251C19.3992 3.95004 19.3268 3.36835 19.1156 2.83126C19.097 2.78264 19.0665 2.73945 19.0269 2.70562C18.9873 2.67178 18.9399 2.64836 18.889 2.6375C18.8381 2.62663 18.7853 2.62866 18.7354 2.6434C18.6854 2.65813 18.64 2.68511 18.6031 2.72188L16.6906 4.63751L15.5281 4.47188L15.3625 3.30938L17.2781 1.39688C17.3148 1.36033 17.3418 1.31514 17.3566 1.26545C17.3713 1.21577 17.3733 1.16318 17.3625 1.11251C17.3514 1.06147 17.328 1.01395 17.2942 0.974153C17.2604 0.934358 17.2173 0.903522 17.1687 0.88438C16.6316 0.673169 16.0499 0.600818 15.4775 0.67402C14.905 0.747222 14.3602 0.963613 13.8936 1.30318C13.4269 1.64274 13.0534 2.09451 12.8076 2.61669C12.5619 3.13887 12.4517 3.71461 12.4875 4.29063C12.4882 4.33182 12.4805 4.37273 12.4649 4.41086C12.4493 4.449 12.4262 4.48358 12.3968 4.51251L11.1062 5.80313L10.2219 4.91876C10.054 4.74908 9.84093 4.63127 9.60799 4.57936C9.37505 4.52745 9.1321 4.54363 8.9081 4.62598C8.68411 4.70833 8.48853 4.85337 8.34469 5.04381C8.20084 5.23424 8.11481 5.46203 8.09685 5.70001C7.8661 5.6395 7.62279 5.64686 7.39612 5.7212C7.16945 5.79554 6.96904 5.9337 6.81894 6.1191C6.66883 6.3045 6.57541 6.52928 6.54987 6.76646C6.52434 7.00364 6.56778 7.24315 6.67498 7.45626C6.42809 7.49798 6.20004 7.61473 6.02185 7.79063C5.86815 7.94513 5.75779 8.13733 5.70184 8.34796C5.64589 8.55859 5.64633 8.78023 5.7031 8.99063C5.46533 9.0068 5.23728 9.0913 5.04638 9.23398C4.85549 9.37665 4.70986 9.57142 4.62701 9.79488C4.54416 10.0183 4.52762 10.261 4.57937 10.4936C4.63112 10.7263 4.74896 10.939 4.91873 11.1063L5.35935 11.5469L4.46248 12.4438C4.43347 12.4739 4.39843 12.4975 4.35965 12.5131C4.32088 12.5287 4.27925 12.536 4.23748 12.5344C4.16873 12.5313 4.1031 12.5313 4.03123 12.5281C3.57981 12.5279 3.13277 12.6166 2.71563 12.7892C2.2985 12.9618 1.91944 13.2148 1.60009 13.5338C0.955139 14.1782 0.592578 15.0524 0.592163 15.9641C0.591749 16.8757 0.953516 17.7503 1.59788 18.3952C2.24224 19.0402 3.11642 19.4027 4.0281 19.4031H4.03748C4.4887 19.403 4.93548 19.3139 5.35228 19.1411C5.76909 18.9682 6.14777 18.715 6.46668 18.3958C6.7856 18.0765 7.03852 17.6976 7.21099 17.2807C7.38346 16.8637 7.4721 16.4169 7.47185 15.9656C7.47185 15.8969 7.46873 15.8281 7.4656 15.7625C7.46359 15.7207 7.47065 15.6789 7.48629 15.6401C7.50193 15.6012 7.52579 15.5663 7.55623 15.5375L8.4531 14.6406L11.9906 18.175L11.7687 18.3969C11.7392 18.4258 11.7157 18.4603 11.6996 18.4984C11.6835 18.5365 11.6751 18.5774 11.675 18.6188C11.6751 18.6596 11.6835 18.7001 11.6996 18.7377C11.7157 18.7752 11.7392 18.8092 11.7687 18.8375L12.2094 19.2813C12.2688 19.3391 12.3483 19.3716 12.4312 19.3719C12.514 19.371 12.5934 19.3386 12.6531 19.2813C12.7116 19.2223 12.7445 19.1425 12.7445 19.0594C12.7445 18.9763 12.7116 18.8965 12.6531 18.8375L12.4312 18.6188L17.2906 13.7563L18.8375 15.3031C18.8965 15.3617 18.9762 15.3945 19.0594 15.3945C19.1425 15.3945 19.2222 15.3617 19.2812 15.3031C19.3394 15.2446 19.3721 15.1654 19.3721 15.0828C19.3721 15.0003 19.3394 14.9211 19.2812 14.8625ZM12.8375 4.95313C12.93 4.86249 13.002 4.75317 13.0489 4.63246C13.0958 4.51175 13.1164 4.38243 13.1094 4.25313C13.0836 3.82417 13.1566 3.39503 13.3227 2.99869C13.4888 2.60235 13.7435 2.24937 14.0673 1.96689C14.3912 1.6844 14.7755 1.47993 15.1907 1.3692C15.6059 1.25846 16.041 1.24442 16.4625 1.32813L14.8125 2.97813C14.7779 3.01239 14.7517 3.0542 14.7359 3.10029C14.7202 3.14638 14.7154 3.19549 14.7219 3.24376L14.9437 4.79063C14.9532 4.85772 14.9843 4.9199 15.0322 4.96781C15.0801 5.01572 15.1423 5.04676 15.2093 5.05626L16.7562 5.27813C16.8045 5.28458 16.8536 5.27976 16.8997 5.26404C16.9458 5.24831 16.9876 5.22212 17.0219 5.18751L18.6719 3.53751C18.7556 3.959 18.7415 4.39408 18.6308 4.80929C18.5201 5.22451 18.3156 5.60881 18.0331 5.93264C17.7506 6.25647 17.3976 6.51122 17.0013 6.67729C16.6049 6.84337 16.1758 6.91635 15.7469 6.89063C15.6176 6.88383 15.4883 6.90455 15.3677 6.95142C15.247 6.99829 15.1376 7.07024 15.0469 7.16251L14.6406 7.56876L13.7562 6.68438C13.5179 6.45705 13.2012 6.33021 12.8719 6.33021C12.5425 6.33021 12.2258 6.45705 11.9875 6.68438L11.5469 6.24376L12.8375 4.95313ZM8.89373 5.35938C9.01328 5.24649 9.17148 5.1836 9.33591 5.1836C9.50034 5.1836 9.65855 5.24649 9.7781 5.35938L11.5469 7.12813L10.6625 8.01251L8.89373 6.24376C8.77735 6.126 8.71209 5.96712 8.71209 5.80157C8.71209 5.63601 8.77735 5.47713 8.89373 5.35938ZM7.34685 6.46563C7.46568 6.35132 7.62415 6.28747 7.78904 6.28747C7.95392 6.28747 8.1124 6.35132 8.23123 6.46563L10.2219 8.45313L10.2594 8.50001C10.2007 8.62354 10.1703 8.75857 10.1703 8.89532C10.1703 9.03206 10.2007 9.1671 10.2594 9.29063L10.2219 9.33751C10.1023 9.4504 9.94409 9.51329 9.77966 9.51329C9.61523 9.51329 9.45703 9.4504 9.33748 9.33751L8.56248 8.56251L7.34685 7.34688C7.28891 7.28906 7.24294 7.22038 7.21158 7.14477C7.18022 7.06916 7.16407 6.98811 7.16407 6.90626C7.16407 6.8244 7.18022 6.74335 7.21158 6.66774C7.24294 6.59213 7.28891 6.52345 7.34685 6.46563ZM6.4656 8.23126C6.5827 8.11485 6.74111 8.04951 6.90623 8.04951C7.07134 8.04951 7.22975 8.11485 7.34685 8.23126L8.12185 9.00626L8.89373 9.77813H8.89685L9.33748 10.2219C9.39555 10.2799 9.44161 10.3489 9.47303 10.4248C9.50446 10.5006 9.52064 10.5819 9.52064 10.6641C9.52064 10.7462 9.50446 10.8275 9.47303 10.9034C9.44161 10.9792 9.39555 11.0482 9.33748 11.1063C9.27941 11.1643 9.21047 11.2104 9.1346 11.2418C9.05873 11.2732 8.97741 11.2894 8.89529 11.2894C8.81317 11.2894 8.73185 11.2732 8.65598 11.2418C8.58011 11.2104 8.51117 11.1643 8.4531 11.1063L6.68435 9.33751L6.4656 9.11563C6.40749 9.05758 6.36139 8.98866 6.32994 8.91278C6.29849 8.83691 6.2823 8.75558 6.2823 8.67344C6.2823 8.59131 6.29849 8.50998 6.32994 8.43411C6.36139 8.35823 6.40749 8.2893 6.4656 8.23126ZM5.17498 10.2219C5.17472 10.1394 5.19089 10.0577 5.22255 9.98147C5.2542 9.90528 5.30071 9.83616 5.35935 9.77813C5.47684 9.66236 5.63504 9.59729 5.79998 9.59688C5.88228 9.59606 5.96392 9.61167 6.04012 9.64279C6.11631 9.67391 6.18553 9.71992 6.24373 9.77813L8.01248 11.5469L8.23123 11.7688C8.3485 11.886 8.41439 12.0451 8.41439 12.2109C8.41439 12.3768 8.3485 12.5359 8.23123 12.6531C8.11395 12.7704 7.95489 12.8363 7.78904 12.8363C7.62319 12.8363 7.46413 12.7704 7.34685 12.6531L5.35935 10.6625C5.301 10.6049 5.25465 10.5363 5.223 10.4607C5.19136 10.385 5.17503 10.3039 5.17498 10.2219ZM12.4312 17.7344L8.89373 14.2L12.2094 10.8844C12.2679 10.8254 12.3008 10.7456 12.3008 10.6625C12.3008 10.5794 12.2679 10.4996 12.2094 10.4406C12.1508 10.3824 12.0716 10.3498 11.989 10.3498C11.9065 10.3498 11.8273 10.3824 11.7687 10.4406L7.11248 15.0969C7.02035 15.1878 6.9485 15.2971 6.90164 15.4178C6.85479 15.5384 6.83398 15.6676 6.8406 15.7969C6.84373 15.8531 6.84685 15.9094 6.84685 15.9656C6.84685 16.711 6.55096 17.4259 6.02419 17.9533C5.49742 18.4806 4.78286 18.7773 4.03748 18.7781H4.0281C3.28218 18.7777 2.56697 18.481 2.03982 17.9533C1.51267 17.4255 1.21675 16.71 1.21716 15.9641C1.21758 15.2181 1.51429 14.5029 2.04203 13.9758C2.56977 13.4486 3.2853 13.1527 4.03123 13.1531C4.0781 13.1531 4.14685 13.1563 4.2031 13.1594C4.33228 13.1653 4.46126 13.1441 4.58179 13.0973C4.70233 13.0505 4.81177 12.979 4.9031 12.8875L5.79998 11.9875L6.90623 13.0938C7.09918 13.288 7.35073 13.4133 7.62201 13.4503C7.89329 13.4873 8.1692 13.4339 8.40711 13.2984C8.64502 13.1629 8.8317 12.9528 8.93829 12.7006C9.04488 12.4485 9.06546 12.1682 8.99685 11.9031C9.19895 11.8883 9.3943 11.824 9.56573 11.7159C9.73717 11.6079 9.87944 11.4594 9.98005 11.2835C10.0807 11.1076 10.1365 10.9097 10.1427 10.7071C10.1489 10.5046 10.1053 10.3036 10.0156 10.1219C10.2612 10.076 10.487 9.95603 10.6625 9.77813C10.6719 9.77188 10.675 9.76251 10.6844 9.75626C10.9852 9.95458 11.3451 10.0433 11.7037 10.0074C12.0622 9.97157 12.3975 9.81335 12.6531 9.55938C12.7122 9.50222 12.7912 9.47026 12.8734 9.47026C12.9556 9.47026 13.0346 9.50222 13.0937 9.55938C13.1228 9.58786 13.1458 9.62192 13.1614 9.65951C13.1769 9.6971 13.1847 9.73745 13.1844 9.77813C13.1848 9.81928 13.177 9.8601 13.1614 9.8982C13.1458 9.9363 13.1228 9.97091 13.0937 10L12.8719 10.2219C12.4621 10.6324 12.232 11.1887 12.232 11.7688C12.232 12.3488 12.4621 12.9051 12.8719 13.3156L13.0937 13.5344C13.1222 13.564 13.1565 13.5876 13.1943 13.6038C13.2322 13.6199 13.2729 13.6282 13.314 13.6282C13.3552 13.6282 13.3959 13.6199 13.4338 13.6038C13.4716 13.5876 13.5058 13.564 13.5344 13.5344C13.5926 13.4758 13.6252 13.3966 13.6252 13.3141C13.6252 13.2315 13.5926 13.1523 13.5344 13.0938L13.3156 12.8719C13.0227 12.5789 12.8581 12.1815 12.8581 11.7672C12.8581 11.3529 13.0227 10.9555 13.3156 10.6625L13.5344 10.4406C13.6215 10.3537 13.6907 10.2505 13.7378 10.1368C13.785 10.0231 13.8093 9.90122 13.8093 9.77813C13.8093 9.65505 13.785 9.53317 13.7378 9.41949C13.6907 9.3058 13.6215 9.20255 13.5344 9.11563C13.3557 8.94559 13.1185 8.85075 12.8719 8.85075C12.6252 8.85075 12.388 8.94559 12.2094 9.11563C12.0336 9.29119 11.7953 9.38981 11.5469 9.38981C11.2984 9.38981 11.0601 9.29119 10.8844 9.11563C10.8261 9.05708 10.7935 8.97788 10.7935 8.89532C10.7935 8.81276 10.8261 8.73356 10.8844 8.67501L12.4312 7.12813C12.5501 7.01382 12.7085 6.94997 12.8734 6.94997C13.0383 6.94997 13.1968 7.01382 13.3156 7.12813L14.7156 8.52501C15.0653 8.87908 15.2864 9.34003 15.3437 9.83438L15.5687 11.8406C15.6475 12.5482 15.9433 13.2141 16.4156 13.7469L12.4312 17.7344Z" fill="#111111"/>
</svg>
