<svg width="40" height="40" viewBox="0 0 40 40" fill="none" xmlns="http://www.w3.org/2000/svg">
<path d="M8.55999 28.222H6.43999C5.62367 28.222 4.84075 27.898 4.26323 27.321C3.68571 26.7441 3.36083 25.9615 3.35999 25.1452V19.6908C3.36083 18.8751 3.68527 18.093 4.26209 17.5161C4.83892 16.9393 5.62103 16.6149 6.43679 16.614H8.55679C8.72652 16.614 8.88931 16.6814 9.00933 16.8015C9.12936 16.9215 9.19679 17.0843 9.19679 17.254V27.582C9.19679 27.7512 9.1298 27.9135 9.01047 28.0334C8.89113 28.1534 8.72917 28.2212 8.55999 28.222ZM6.43999 17.894C5.96315 17.894 5.5058 18.0832 5.16832 18.4201C4.83085 18.757 4.64083 19.214 4.63999 19.6908V25.1452C4.64083 25.6215 4.83041 26.078 5.16719 26.4148C5.50397 26.7516 5.9605 26.9412 6.43679 26.942H7.91679V17.894H6.43999Z" fill="#3B16A1"/>
<path d="M11.2916 28.222H8.56004C8.39031 28.222 8.22752 28.1546 8.1075 28.0346C7.98747 27.9145 7.92004 27.7518 7.92004 27.582V17.254C7.92004 17.0843 7.98747 16.9215 8.1075 16.8015C8.22752 16.6814 8.39031 16.614 8.56004 16.614H11.2936C11.4634 16.614 11.6262 16.6814 11.7462 16.8015C11.8662 16.9215 11.9336 17.0843 11.9336 17.254V27.582C11.9336 27.6662 11.917 27.7496 11.8847 27.8274C11.8524 27.9052 11.8051 27.9758 11.7455 28.0353C11.6858 28.0947 11.6151 28.1418 11.5372 28.1739C11.4593 28.2059 11.3759 28.2223 11.2916 28.222ZM9.19804 26.942H10.6516V17.894H9.20004L9.19804 26.942ZM33.5632 28.222H31.4432C31.2735 28.222 31.1107 28.1546 30.9907 28.0346C30.8707 27.9145 30.8032 27.7518 30.8032 27.582V17.254C30.8032 17.0843 30.8707 16.9215 30.9907 16.8015C31.1107 16.6814 31.2735 16.614 31.4432 16.614H33.5632C34.379 16.6149 35.1611 16.9393 35.7379 17.5161C36.3148 18.093 36.6392 18.8751 36.64 19.6908V25.1452C36.6392 25.961 36.3148 26.7431 35.7379 27.3199C35.1611 27.8967 34.379 28.2212 33.5632 28.222ZM32.0832 26.942H33.5632C34.0395 26.9412 34.4961 26.7516 34.8328 26.4148C35.1696 26.078 35.3592 25.6215 35.36 25.1452V19.6908C35.3592 19.2145 35.1696 18.758 34.8328 18.4212C34.4961 18.0844 34.0395 17.8949 33.5632 17.894H32.0832V26.942Z" fill="#3B16A1"/>
<path d="M31.442 28.222H28.7084C28.5386 28.222 28.3758 28.1546 28.2558 28.0346C28.1358 27.9145 28.0684 27.7518 28.0684 27.582V17.254C28.0684 17.0843 28.1358 16.9215 28.2558 16.8015C28.3758 16.6814 28.5386 16.614 28.7084 16.614H31.442C31.6117 16.614 31.7745 16.6814 31.8945 16.8015C32.0145 16.9215 32.082 17.0843 32.082 17.254V27.582C32.082 27.7518 32.0145 27.9145 31.8945 28.0346C31.7745 28.1546 31.6117 28.222 31.442 28.222ZM29.3484 26.942H30.802V17.894H29.3484V26.942Z" fill="#3B16A1"/>
<path d="M33.1084 17.894H30.024C29.8542 17.894 29.6914 17.8266 29.5714 17.7065C29.4514 17.5865 29.384 17.4237 29.384 17.254C29.384 12.2 25.2724 8.088 20.2184 8.088C15.1644 8.088 11.0528 12.2 11.0528 17.254C11.0528 17.4237 10.9853 17.5865 10.8653 17.7065C10.7453 17.8266 10.5825 17.894 10.4128 17.894H7.32835C7.15862 17.894 6.99583 17.8266 6.87581 17.7065C6.75578 17.5865 6.68835 17.4237 6.68835 17.254C6.68835 13.6656 8.11383 10.2242 10.6512 7.68684C13.1886 5.14948 16.63 3.724 20.2184 3.724C23.8067 3.724 27.2481 5.14948 29.7855 7.68684C32.3229 10.2242 33.7484 13.6656 33.7484 17.254C33.7484 17.4237 33.6809 17.5865 33.5609 17.7065C33.4409 17.8266 33.2781 17.894 33.1084 17.894ZM30.6448 16.614H32.452C32.2877 13.4803 30.9271 10.5292 28.6509 8.36915C26.3747 6.20913 23.3563 5.00495 20.2184 5.00495C17.0804 5.00495 14.062 6.20913 11.7858 8.36915C9.50958 10.5292 8.14904 13.4803 7.98475 16.614H9.79195C10.1236 11.1508 14.672 6.808 20.2184 6.808C25.7648 6.808 30.3132 11.1508 30.6448 16.614ZM22.48 34.3704C22.3165 34.37 22.1594 34.3072 22.0409 34.1947C21.9223 34.0822 21.8513 33.9286 21.8423 33.7655C21.8334 33.6023 21.8872 33.4419 21.9927 33.3171C22.0983 33.1923 22.2476 33.1126 22.41 33.0944C29.6756 32.2864 30.8072 27.4944 30.8176 27.4452C30.8593 27.285 30.9614 27.1472 31.1025 27.0608C31.2436 26.9743 31.4128 26.9458 31.5744 26.9814C31.7361 27.017 31.8776 27.1138 31.9694 27.2515C32.0612 27.3892 32.0961 27.5571 32.0668 27.72C32.0536 27.7808 31.7264 29.2208 30.3668 30.7564C29.5796 31.6456 28.6028 32.392 27.4644 32.9744C26.0612 33.6912 24.408 34.16 22.55 34.3664C22.5267 34.3691 22.5033 34.3704 22.48 34.3704Z" fill="#3B16A1"/>
<path d="M20.698 36.2764H19.738C19.0947 36.2764 18.4777 36.0208 18.0228 35.5659C17.5679 35.111 17.3124 34.4941 17.3124 33.8508C17.3124 33.2075 17.5679 32.5905 18.0228 32.1356C18.4777 31.6807 19.0947 31.4252 19.738 31.4252H20.698C21.3413 31.4252 21.9582 31.6807 22.4131 32.1356C22.868 32.5905 23.1236 33.2075 23.1236 33.8508C23.1236 34.4941 22.868 35.111 22.4131 35.5659C21.9582 36.0208 21.3413 36.2764 20.698 36.2764ZM19.738 32.7052C19.4341 32.7052 19.1428 32.8259 18.9279 33.0407C18.7131 33.2556 18.5924 33.5469 18.5924 33.8508C18.5924 34.1546 18.7131 34.446 18.9279 34.6608C19.1428 34.8757 19.4341 34.9964 19.738 34.9964H20.698C21.0018 34.9964 21.2932 34.8757 21.508 34.6608C21.7229 34.446 21.8436 34.1546 21.8436 33.8508C21.8436 33.5469 21.7229 33.2556 21.508 33.0407C21.2932 32.8259 21.0018 32.7052 20.698 32.7052H19.738Z" fill="#3B16A1"/>
</svg>
