<svg width="20" height="20" viewBox="0 0 20 20" fill="none" xmlns="http://www.w3.org/2000/svg">
<path d="M17.7681 3.48101H15.8901C15.7166 3.48101 15.5769 3.34052 15.5769 3.16778C15.5769 2.99505 15.7174 2.85455 15.8901 2.85455H17.7681C17.9416 2.85455 18.0813 2.99505 18.0813 3.16778C18.0813 3.34052 17.9416 3.48101 17.7681 3.48101Z" fill="#111111"/>
<path d="M17.7681 8.72478C17.7269 8.7248 17.6862 8.71672 17.6482 8.70098C17.6102 8.68525 17.5756 8.66218 17.5465 8.63309C17.5174 8.604 17.4944 8.56946 17.4786 8.53145C17.4629 8.49343 17.4548 8.45269 17.4548 8.41155V2.07527H14.3263V8.41155C14.3263 8.58506 14.1858 8.72478 14.013 8.72478C13.8403 8.72478 13.6998 8.58429 13.6998 8.41155V1.76123C13.6998 1.72009 13.7079 1.67935 13.7236 1.64133C13.7393 1.60332 13.7624 1.56878 13.7915 1.53969C13.8206 1.5106 13.8551 1.48753 13.8931 1.4718C13.9311 1.45606 13.9719 1.44798 14.013 1.448H17.7689C17.81 1.44798 17.8508 1.45606 17.8888 1.4718C17.9268 1.48753 17.9613 1.5106 17.9904 1.53969C18.0195 1.56878 18.0426 1.60332 18.0583 1.64133C18.074 1.67935 18.0821 1.72009 18.0821 1.76123V8.41151C18.0821 8.58506 17.9416 8.72478 17.7681 8.72478ZM13.7535 16.0461H12.2349C12.1937 16.0461 12.153 16.038 12.115 16.0223C12.077 16.0065 12.0424 15.9835 12.0133 15.9544C11.9842 15.9253 11.9612 15.8907 11.9454 15.8527C11.9297 15.8147 11.9216 15.774 11.9216 15.7328V13.0464C11.9216 13.0053 11.9297 12.9646 11.9454 12.9266C11.9612 12.8885 11.9842 12.854 12.0133 12.8249C12.0424 12.7958 12.077 12.7728 12.115 12.757C12.153 12.7413 12.1937 12.7332 12.2349 12.7332H13.7535C13.7946 12.7332 13.8354 12.7413 13.8734 12.757C13.9114 12.7728 13.9459 12.7958 13.975 12.8249C14.0041 12.854 14.0272 12.8885 14.0429 12.9266C14.0586 12.9646 14.0667 13.0053 14.0667 13.0464V15.7328C14.0675 15.9056 13.927 16.0461 13.7535 16.0461ZM12.5481 15.4188H13.4402V13.359H12.5481V15.4188ZM17.1853 16.0461H15.6667C15.6256 16.0461 15.5848 16.038 15.5468 16.0223C15.5088 16.0065 15.4743 15.9835 15.4452 15.9544C15.4161 15.9253 15.393 15.8907 15.3773 15.8527C15.3616 15.8147 15.3535 15.774 15.3535 15.7328V13.0464C15.3535 13.0053 15.3616 12.9646 15.3773 12.9266C15.393 12.8885 15.4161 12.854 15.4452 12.8249C15.4743 12.7958 15.5088 12.7728 15.5468 12.757C15.5848 12.7413 15.6256 12.7332 15.6667 12.7332H17.1853C17.2265 12.7332 17.2672 12.7413 17.3052 12.757C17.3432 12.7728 17.3778 12.7958 17.4069 12.8249C17.436 12.854 17.459 12.8885 17.4748 12.9266C17.4905 12.9646 17.4986 13.0053 17.4986 13.0464V15.7328C17.4993 15.9056 17.3588 16.0461 17.1853 16.0461ZM15.9799 15.4188H16.8721V13.359H15.9799V15.4188Z" fill="#111111"/>
<path d="M19.6868 18.552H0.313229C0.272089 18.5521 0.231348 18.544 0.193335 18.5282C0.155322 18.5125 0.120783 18.4894 0.0916927 18.4603C0.0626022 18.4312 0.0395308 18.3967 0.0237975 18.3587C0.00806418 18.3207 -2.24067e-05 18.2799 4.66301e-08 18.2388V8.41151C-2.24067e-05 8.37037 0.00806418 8.32963 0.0237975 8.29162C0.0395308 8.25361 0.0626022 8.21907 0.0916927 8.18998C0.120783 8.16089 0.155322 8.13781 0.193335 8.12208C0.231348 8.10635 0.272089 8.09826 0.313229 8.09828H1.71206V5.76659C1.71204 5.70591 1.72967 5.64653 1.76279 5.59568C1.79592 5.54484 1.84312 5.50472 1.89863 5.48023L6.82379 3.29287C6.86391 3.27503 6.90733 3.26581 6.95123 3.26581C6.99514 3.26581 7.03856 3.27503 7.07868 3.29287L12.0038 5.48023C12.0593 5.50481 12.1064 5.54495 12.1395 5.59577C12.1727 5.6466 12.1903 5.70593 12.1904 5.76659V8.09828H19.6868C19.7279 8.09826 19.7687 8.10635 19.8067 8.12208C19.8447 8.13781 19.8792 8.16089 19.9083 8.18998C19.9374 8.21907 19.9605 8.25361 19.9762 8.29162C19.9919 8.32963 20 8.37037 20 8.41151V18.2388C20 18.4115 19.8595 18.552 19.6868 18.552ZM0.62727 17.9248H19.3728V8.72474H11.8764C11.8353 8.72476 11.7945 8.71668 11.7565 8.70095C11.7185 8.68521 11.684 8.66214 11.6549 8.63305C11.6258 8.60396 11.6027 8.56942 11.587 8.53141C11.5712 8.49339 11.5632 8.45265 11.5632 8.41151V5.97003L6.95126 3.92172L2.3401 5.97008V8.41156C2.34012 8.4527 2.33204 8.49344 2.3163 8.53145C2.30057 8.56946 2.2775 8.604 2.24841 8.63309C2.21932 8.66218 2.18478 8.68525 2.14677 8.70099C2.10875 8.71672 2.06801 8.72481 2.02687 8.72479H0.62727V17.9248Z" fill="#111111"/>
<path d="M9.58243 18.552H4.28418C4.24304 18.552 4.2023 18.544 4.16428 18.5282C4.12627 18.5125 4.09173 18.4894 4.06264 18.4603C4.03355 18.4312 4.01048 18.3967 3.99474 18.3587C3.97901 18.3207 3.97092 18.2799 3.97095 18.2388V11.8365C3.97092 11.7953 3.97901 11.7546 3.99474 11.7166C4.01048 11.6786 4.03355 11.644 4.06264 11.6149C4.09173 11.5859 4.12627 11.5628 4.16428 11.5471C4.2023 11.5313 4.24304 11.5232 4.28418 11.5233H9.58247C9.62361 11.5232 9.66435 11.5313 9.70236 11.5471C9.74038 11.5628 9.77492 11.5859 9.80401 11.6149C9.8331 11.644 9.85617 11.6786 9.8719 11.7166C9.88764 11.7546 9.89572 11.7953 9.8957 11.8365V18.2388C9.89566 18.4115 9.75516 18.552 9.58243 18.552ZM4.59741 17.9247H9.26843V12.1497H4.59741V17.9247Z" fill="#111111"/>
<path d="M9.58243 13.7505H4.28418C4.11067 13.7505 3.97095 13.61 3.97095 13.4373C3.97095 13.2645 4.11144 13.124 4.28418 13.124H9.58247C9.75597 13.124 9.8957 13.2645 9.8957 13.4373C9.8957 13.61 9.75516 13.7505 9.58243 13.7505ZM9.58243 15.3505H4.28418C4.11067 15.3505 3.97095 15.21 3.97095 15.0373C3.97095 14.8645 4.11144 14.724 4.28418 14.724H9.58247C9.75597 14.724 9.8957 14.8645 9.8957 15.0373C9.8957 15.21 9.75516 15.3505 9.58243 15.3505ZM9.58243 16.9512H4.28418C4.11067 16.9512 3.97095 16.8107 3.97095 16.638C3.97095 16.4653 4.11144 16.3248 4.28418 16.3248H9.58247C9.62361 16.3247 9.66435 16.3328 9.70236 16.3486C9.74038 16.3643 9.77492 16.3874 9.80401 16.4165C9.8331 16.4456 9.85617 16.4801 9.8719 16.5181C9.88764 16.5561 9.89572 16.5969 9.8957 16.638C9.89566 16.8107 9.75516 16.9512 9.58243 16.9512Z" fill="#111111"/>
</svg>
