<svg width="20" height="20" viewBox="0 0 20 20" fill="none" xmlns="http://www.w3.org/2000/svg">
<g clip-path="url(#clip0_4001_582)">
<path d="M19.6875 11.5622H16.7188V9.37503H17.1872C17.7041 9.37503 18.1247 8.9544 18.1247 8.43753V5.3119C18.1247 4.79503 17.7041 4.3744 17.1872 4.3744H14.6862C14.1694 4.3744 13.7487 4.79503 13.7487 5.3119V6.24972H10.9369V5.00034C10.9369 4.48347 10.5162 4.06284 9.99937 4.06284H8.74969V4.00409C8.93206 3.93998 9.09009 3.82095 9.20206 3.66337C9.31403 3.50579 9.37445 3.3174 9.375 3.12409C9.375 2.60722 8.95438 2.18659 8.4375 2.18659C7.92063 2.18659 7.5 2.60722 7.5 3.12409C7.5 3.53097 7.76188 3.8744 8.12469 4.00378V4.06253H6.87469C6.35781 4.06253 5.93719 4.48315 5.93719 5.00003V9.6869H5V9.06315C5 8.98027 4.96708 8.90079 4.90847 8.84218C4.84987 8.78358 4.77038 8.75065 4.6875 8.75065H3.4375V2.49878C3.4375 2.4159 3.40458 2.33641 3.34597 2.27781C3.28737 2.2192 3.20788 2.18628 3.125 2.18628C3.04212 2.18628 2.96263 2.2192 2.90403 2.27781C2.84542 2.33641 2.8125 2.4159 2.8125 2.49878V8.75097H2.1875V2.49878C2.1875 2.4159 2.15458 2.33641 2.09597 2.27781C2.03737 2.2192 1.95788 2.18628 1.875 2.18628C1.79212 2.18628 1.71263 2.2192 1.65403 2.27781C1.59542 2.33641 1.5625 2.4159 1.5625 2.49878V8.75097H0.3125C0.22962 8.75097 0.150134 8.78389 0.0915291 8.8425C0.032924 8.9011 0 8.98059 0 9.06347L0 17.5013C0 17.5842 0.032924 17.6636 0.0915291 17.7222C0.150134 17.7809 0.22962 17.8138 0.3125 17.8138H4.6875C4.77038 17.8138 4.84987 17.7809 4.90847 17.7222C4.96708 17.6636 5 17.5842 5 17.5013V11.2497H5.93719V16.876C5.93719 17.3928 6.35781 17.8135 6.87469 17.8135H9.99937C10.5162 17.8135 10.9369 17.3928 10.9369 16.876V7.81222H13.7487V8.43753C13.7487 8.9544 14.1694 9.37503 14.6862 9.37503H15.1562V11.5622H12.1869C12.104 11.5622 12.0245 11.5951 11.9659 11.6537C11.9073 11.7124 11.8744 11.7918 11.8744 11.8747V17.5007C11.8744 17.5835 11.9073 17.663 11.9659 17.7216C12.0245 17.7802 12.104 17.8132 12.1869 17.8132H19.6875C19.7704 17.8132 19.8499 17.7802 19.9085 17.7216C19.9671 17.663 20 17.5835 20 17.5007V11.8747C20 11.7918 19.9671 11.7124 19.9085 11.6537C19.8499 11.5951 19.7704 11.5622 19.6875 11.5622ZM4.375 17.1888H0.625V15.9382H4.375V17.1888ZM4.375 15.3132H0.625V12.5016H0.9375V14.6888C0.9375 14.7717 0.970424 14.8511 1.02903 14.9097C1.08763 14.9684 1.16712 15.0013 1.25 15.0013H3.75C3.83288 15.0013 3.91237 14.9684 3.97097 14.9097C4.02958 14.8511 4.0625 14.7717 4.0625 14.6888V12.5016H4.375V15.3132ZM1.5625 14.3763V12.5016H3.4375V14.3763H1.5625ZM4.375 11.8766H3.75156L3.75 11.8763L3.74844 11.8766H1.25156L1.25 11.8763L1.24844 11.8766H0.625V9.37597H4.375V11.8766ZM5.93719 10.6247H5V10.3122H5.93719V10.6247ZM8.4375 2.81159C8.52038 2.81159 8.59987 2.84452 8.65847 2.90312C8.71708 2.96173 8.75 3.04121 8.75 3.12409C8.75 3.20697 8.71708 3.28646 8.65847 3.34506C8.59987 3.40367 8.52038 3.43659 8.4375 3.43659C8.35462 3.43659 8.27513 3.40367 8.21653 3.34506C8.15792 3.28646 8.125 3.20697 8.125 3.12409C8.125 3.04121 8.15792 2.96173 8.21653 2.90312C8.27513 2.84452 8.35462 2.81159 8.4375 2.81159ZM10.3119 16.876C10.3119 16.9588 10.279 17.0383 10.2203 17.0969C10.1617 17.1555 10.0823 17.1885 9.99937 17.1885H6.87469C6.79181 17.1885 6.71232 17.1555 6.65372 17.0969C6.59511 17.0383 6.56219 16.9588 6.56219 16.876V5.88003C6.66031 5.91503 6.76438 5.93784 6.87469 5.93784H9.99937C10.1097 5.93784 10.2137 5.91534 10.3119 5.88003V16.876ZM9.99937 5.31284H6.87469C6.79181 5.31284 6.71232 5.27992 6.65372 5.22131C6.59511 5.16271 6.56219 5.08322 6.56219 5.00034C6.56219 4.91746 6.59511 4.83798 6.65372 4.77937C6.71232 4.72077 6.79181 4.68784 6.87469 4.68784H8.125C8.125 4.77064 8.15789 4.85004 8.21644 4.90859C8.27498 4.96714 8.35439 5.00003 8.43719 5.00003C8.51999 5.00003 8.59939 4.96714 8.65794 4.90859C8.71648 4.85004 8.74937 4.77064 8.74937 4.68784H9.99937C10.0823 4.68784 10.1617 4.72077 10.2203 4.77937C10.279 4.83798 10.3119 4.91746 10.3119 5.00034C10.3119 5.08322 10.279 5.16271 10.2203 5.22131C10.1617 5.27992 10.0823 5.31284 9.99937 5.31284ZM13.7487 7.18722H10.9369V6.87472H13.7487V7.18722ZM14.6862 8.75003C14.6034 8.75003 14.5239 8.71711 14.4653 8.6585C14.4067 8.5999 14.3737 8.52041 14.3737 8.43753V5.3119C14.3737 5.22902 14.4067 5.14954 14.4653 5.09093C14.5239 5.03233 14.6034 4.9994 14.6862 4.9994H17.1872C17.2701 4.9994 17.3496 5.03233 17.4082 5.09093C17.4668 5.14954 17.4997 5.22902 17.4997 5.3119V8.43753C17.4997 8.52041 17.4668 8.5999 17.4082 8.6585C17.3496 8.71711 17.2701 8.75003 17.1872 8.75003H14.6862ZM13.1247 17.1882H12.4994V13.4372H13.1247V17.1882ZM13.1247 12.8122H12.4994V12.1872H13.1247V12.8122ZM14.3744 17.1882H13.7497V13.4372H14.3744V17.1882ZM14.3744 12.8122H13.7497V12.1872H14.3744V12.8122ZM15.6241 17.1882H14.9994V13.4372H15.6241V17.1882ZM15.6241 12.8122H14.9994V12.1872H15.6241V12.8122ZM16.0938 11.5622H15.7812V9.37503H16.0938V11.5622ZM16.8737 17.1882H16.2491V13.4372H16.8737V17.1882ZM16.8737 12.8122H16.2491V12.1872H16.8737V12.8122ZM18.125 17.1882H17.4987V13.4372H18.125V17.1882ZM18.125 12.8122H17.4987V12.1872H18.125V12.8122ZM19.375 17.1882H18.75V13.4372H19.375V17.1882ZM19.375 12.8122H18.75V12.1872H19.375V12.8122Z" fill="#111111"/>
</g>
<defs>
<clipPath id="clip0_4001_582">
<rect width="20" height="20" fill="white"/>
</clipPath>
</defs>
</svg>
